<!DOCTYPE svg PUBLIC "-//W3C//DTD SVG 20010904//EN" "http://www.w3.org/TR/2001/REC-SVG-20010904/DTD/svg10.dtd">
<svg version="1.0" xmlns="http://www.w3.org/2000/svg" width="272px" height="272px" viewBox="0 0 2720 2720" preserveAspectRatio="xMidYMid meet">
<g id="layer101" fill="#191919" stroke="none">
 <path d="M0 1360 l0 -1360 1360 0 1360 0 0 1360 0 1360 -1360 0 -1360 0 0 -1360z"/>
 </g>
<g id="layer102" fill="#bdd0e4" stroke="none">
 <path d="M189 2372 c-19 -13 -21 -21 -16 -66 5 -48 101 -407 166 -621 17 -54 28 -101 26 -103 -2 -2 -50 10 -107 28 -57 17 -111 33 -120 36 -44 13 -77 -76 -40 -109 10 -9 82 -34 161 -56 79 -21 147 -43 151 -48 9 -9 59 -210 145 -583 31 -135 63 -260 71 -277 12 -31 16 -33 61 -33 37 0 51 -5 61 -20 7 -11 23 -20 37 -20 64 0 146 190 245 570 28 107 53 203 56 213 7 24 45 16 91 -19 40 -30 49 -30 69 1 37 57 -7 124 -92 140 -19 3 -34 11 -34 18 0 18 98 598 109 648 6 24 11 65 11 92 0 41 -3 49 -26 59 -58 27 -80 -27 -119 -283 -49 -328 -77 -484 -86 -494 -11 -11 -490 81 -513 99 -17 13 -107 332 -171 604 -23 100 -50 193 -58 206 -20 30 -50 38 -78 18z m796 -1054 c8 -8 -49 -255 -91 -394 -54 -179 -135 -343 -155 -312 -26 40 -219 736 -219 790 0 12 37 7 229 -31 126 -26 232 -49 236 -53z"/>
 <path d="M1535 2230 c-14 -15 -16 -29 -11 -61 8 -51 90 -354 151 -558 25 -85 43 -156 40 -159 -3 -3 -52 9 -109 26 -57 18 -113 32 -123 32 -29 0 -43 -20 -43 -62 0 -50 14 -58 180 -103 74 -20 138 -39 142 -43 9 -9 64 -229 144 -576 36 -154 72 -291 80 -304 14 -21 21 -23 56 -18 34 6 43 3 55 -14 22 -31 67 -26 93 10 57 80 123 264 195 544 30 115 58 213 62 217 8 8 71 -18 106 -43 26 -20 51 2 55 46 5 55 -18 83 -84 102 -54 15 -56 17 -50 45 3 16 21 126 41 246 20 120 47 276 61 348 14 71 22 140 19 153 -8 32 -49 50 -71 31 -35 -29 -50 -91 -94 -399 -28 -193 -60 -373 -68 -382 -6 -6 -472 83 -509 96 -6 3 -21 36 -32 73 -38 128 -122 448 -155 591 -20 83 -41 151 -51 162 -23 25 -57 25 -80 0z m576 -995 c122 -25 223 -45 225 -45 9 0 1 -45 -36 -200 -50 -203 -81 -299 -135 -416 -39 -84 -59 -113 -71 -101 -15 15 -85 252 -150 503 -41 160 -74 293 -74 297 0 11 7 10 241 -38z"/>
 </g>

</svg>