<!DOCTYPE svg PUBLIC "-//W3C//DTD SVG 20010904//EN" "http://www.w3.org/TR/2001/REC-SVG-20010904/DTD/svg10.dtd">
<svg version="1.0" xmlns="http://www.w3.org/2000/svg" width="272px" height="272px" viewBox="0 0 2720 2720" preserveAspectRatio="xMidYMid meet">
<g id="layer101" fill="#191919" stroke="none">
 <path d="M420 2694 c-194 -52 -344 -204 -395 -399 -23 -89 -23 -1781 0 -1869 50 -191 210 -351 401 -401 88 -23 1780 -23 1868 0 177 46 323 180 387 355 l24 65 0 915 c0 869 -1 918 -19 970 -54 160 -182 291 -344 353 -57 22 -60 22 -962 24 -773 2 -913 0 -960 -13z"/>
 </g>
<g id="layer102" fill="#c4d8ed" stroke="none">
 <path d="M180 2365 c-8 -10 -11 -32 -7 -63 6 -46 106 -419 166 -617 17 -54 28 -101 26 -103 -2 -2 -37 6 -77 18 -161 50 -167 51 -189 29 -24 -24 -25 -71 -1 -92 9 -8 78 -32 152 -52 74 -21 142 -41 151 -46 17 -9 29 -54 163 -626 30 -127 60 -241 66 -252 8 -16 20 -21 55 -21 32 0 51 -6 65 -20 11 -11 29 -20 39 -20 57 0 146 207 232 538 72 281 66 265 97 257 15 -3 44 -18 66 -33 l38 -26 20 24 c15 18 18 34 14 60 -7 42 -34 67 -92 81 -24 6 -44 17 -44 24 0 19 97 594 109 646 6 24 11 65 11 92 0 41 -3 49 -26 59 -60 27 -80 -25 -124 -318 -52 -351 -72 -455 -88 -462 -19 -7 -494 88 -508 102 -17 16 -120 392 -193 700 -11 49 -28 100 -36 113 -18 27 -66 31 -85 8z m581 -996 c118 -23 218 -45 222 -49 10 -9 -43 -245 -89 -398 -37 -121 -110 -289 -136 -310 -18 -15 -16 -19 -59 108 -32 92 -179 655 -179 684 0 11 5 16 14 13 8 -3 110 -25 227 -48z"/>
 <path d="M1536 2231 c-14 -16 -16 -29 -11 -63 9 -54 101 -392 154 -569 23 -75 41 -140 41 -146 0 -6 -47 4 -111 23 -61 19 -119 34 -128 34 -27 0 -41 -21 -41 -62 0 -50 14 -58 180 -103 74 -20 138 -39 142 -43 8 -9 69 -250 142 -567 82 -355 77 -343 142 -330 30 5 39 3 51 -14 9 -13 25 -21 44 -21 24 0 35 8 59 47 59 92 119 267 195 567 25 99 47 182 50 184 3 3 34 -10 70 -28 75 -38 95 -32 95 29 0 53 -23 78 -85 97 -30 8 -55 17 -55 18 0 13 87 521 106 621 14 71 22 140 19 153 -3 12 -17 28 -31 34 -24 11 -29 9 -49 -14 -28 -33 -37 -72 -81 -363 -43 -285 -64 -404 -74 -410 -15 -9 -505 95 -516 110 -17 22 -126 423 -193 709 -11 49 -28 98 -37 108 -22 23 -56 23 -78 -1z m578 -996 c120 -24 221 -47 224 -50 11 -11 -73 -352 -119 -480 -49 -140 -108 -249 -125 -233 -15 16 -86 251 -149 500 -41 161 -75 296 -75 301 0 11 11 9 244 -38z"/>
 </g>

</svg>