<!DOCTYPE svg PUBLIC "-//W3C//DTD SVG 20010904//EN" "http://www.w3.org/TR/2001/REC-SVG-20010904/DTD/svg10.dtd">
<svg version="1.0" xmlns="http://www.w3.org/2000/svg" width="513px" height="513px" viewBox="0 0 5130 5130" preserveAspectRatio="xMidYMid meet">
<g id="layer101" fill="#191919" stroke="none">
 <path d="M825 5105 c-375 -69 -683 -358 -787 -735 l-23 -85 0 -1720 c0 -1887 -4 -1740 56 -1903 98 -267 324 -493 591 -591 163 -60 16 -56 1903 -56 1887 0 1740 -4 1903 56 300 110 537 371 624 689 l23 85 0 1720 0 1720 -23 85 c-96 350 -364 620 -717 721 l-80 23 -1700 2 c-1361 2 -1714 0 -1770 -11z"/>
 </g>
<g id="layer102" fill="#c4d8ed" stroke="none">
 <path d="M4930 3816 c0 -70 -35 -106 -101 -106 -18 0 -28 -4 -24 -10 3 -5 17 -10 30 -10 58 0 95 -42 95 -106 0 -13 5 -24 10 -24 6 0 10 13 10 30 0 61 37 100 95 100 13 0 27 5 30 10 4 6 -8 10 -30 10 -50 0 -95 44 -95 94 0 19 -4 38 -10 41 -6 4 -10 -8 -10 -29z"/>
 <path d="M512 3628 c-6 -6 -12 -26 -12 -43 0 -35 76 -328 151 -578 28 -93 49 -170 47 -172 -2 -1 -52 13 -113 32 -60 18 -119 32 -130 31 -26 -4 -50 -48 -42 -80 8 -31 30 -41 201 -88 l130 -35 28 -110 c15 -61 59 -246 98 -413 94 -403 84 -377 142 -377 36 0 53 -6 73 -25 24 -23 28 -24 53 -9 62 34 142 243 243 635 l41 162 32 -9 c17 -5 43 -18 58 -29 36 -26 56 -25 69 4 14 29 4 89 -16 106 -8 7 -36 17 -62 24 -44 11 -48 15 -47 42 1 31 46 307 95 576 32 177 31 200 -12 213 -30 10 -57 -19 -74 -79 -8 -28 -31 -159 -50 -291 -39 -264 -64 -406 -75 -418 -7 -8 -510 90 -521 101 -9 10 -134 476 -170 632 -38 170 -54 204 -94 208 -17 2 -36 -3 -43 -10z m578 -1004 c123 -25 227 -47 229 -50 6 -6 -44 -226 -86 -369 -38 -133 -101 -285 -137 -329 l-23 -30 -41 125 c-38 112 -182 659 -182 687 0 16 -15 18 240 -34z"/>
 <path d="M2708 3629 c-12 -7 -18 -22 -18 -47 0 -40 80 -349 154 -597 25 -82 44 -151 42 -152 -2 -2 -59 13 -126 33 l-123 37 -19 -22 c-26 -33 -23 -77 7 -97 14 -9 84 -32 157 -51 73 -20 138 -41 144 -47 11 -10 60 -207 173 -687 23 -97 48 -185 55 -195 10 -13 25 -17 56 -16 33 2 46 -2 57 -18 19 -26 54 -26 80 3 55 59 129 259 203 547 l57 225 28 -2 c15 -1 45 -14 66 -27 21 -14 45 -23 54 -20 32 13 31 90 -2 126 -8 9 -37 22 -65 29 -50 13 -50 13 -45 49 13 86 61 371 92 544 36 196 36 214 -4 235 -28 16 -58 -13 -76 -71 -8 -28 -33 -170 -55 -317 -50 -336 -62 -395 -81 -399 -21 -4 -499 94 -509 104 -11 12 -129 444 -176 644 -43 187 -68 223 -126 189z m577 -1009 c121 -24 222 -45 224 -47 8 -6 -72 -332 -109 -444 -40 -121 -98 -246 -123 -267 -12 -10 -16 -9 -22 5 -34 83 -78 234 -145 497 -67 261 -76 307 -62 303 10 -2 117 -24 237 -47z"/>
 <path d="M2359 3414 c-10 -13 -11 -84 0 -403 12 -366 9 -578 -10 -628 -5 -14 -17 -23 -29 -23 -66 0 -143 173 -295 656 -35 114 -71 217 -80 230 -22 33 -82 34 -90 2 -2 -13 -16 -167 -30 -343 -14 -176 -32 -383 -40 -460 -22 -208 -21 -239 11 -264 68 -53 78 -25 93 249 25 449 32 558 37 610 l6 55 82 -245 c132 -392 189 -522 258 -586 89 -84 139 -30 168 181 7 44 14 274 17 511 l5 431 -27 21 c-33 26 -58 28 -76 6z"/>
 <path d="M4540 3400 c-7 -13 -7 -88 0 -242 11 -242 12 -715 1 -762 -3 -16 -14 -34 -23 -40 -26 -16 -72 34 -119 129 -34 71 -207 572 -239 694 -6 24 -22 54 -35 67 -26 26 -73 32 -80 12 -3 -7 -18 -177 -35 -378 -17 -201 -37 -431 -46 -512 -19 -167 -14 -185 45 -206 43 -15 49 0 61 170 13 189 40 673 40 722 0 22 3 37 6 33 3 -3 39 -104 79 -224 134 -401 200 -550 270 -612 89 -77 138 -11 165 219 6 52 13 278 17 501 l6 406 -21 21 c-28 28 -77 29 -92 2z"/>
 <path d="M352 1884 c-19 -171 -52 -213 -185 -234 -39 -6 -90 -15 -112 -19 -35 -7 -37 -8 -15 -13 14 -3 59 -10 101 -16 155 -19 192 -60 211 -236 6 -58 14 -106 18 -106 3 0 12 46 18 103 22 183 56 220 228 242 52 7 97 15 100 18 3 3 -16 8 -43 12 -181 23 -224 41 -254 109 -10 24 -24 89 -31 145 -6 55 -14 101 -18 101 -3 0 -11 -48 -18 -106z"/>
 </g>

</svg>