<svg xmlns="http://www.w3.org/2000/svg" version="1.0" width="16000" height="8360" preserveAspectRatio="xMidYMid meet" style=""><rect id="backgroundrect" width="100%" height="100%" x="0" y="0" fill="none" stroke="none"/>


<g class="currentLayer" style=""><title>Layer 1</title><g id="layer101" fill="#c4d8ed" stroke="none" class="selected" fill-opacity="1">
 <path d="M15396 8248 c-2 -7 -7 -57 -10 -111 -9 -143 -38 -241 -84 -290 -48 -51 -106 -69 -279 -88 -62 -7 -113 -16 -113 -20 0 -12 30 -19 83 -19 73 -1 196 -24 249 -48 25 -11 57 -35 71 -53 35 -47 66 -164 75 -289 9 -133 27 -144 36 -23 20 254 59 337 178 377 55 19 159 36 220 36 49 0 78 7 78 20 0 4 -48 13 -107 19 -60 7 -129 17 -155 22 -66 15 -133 60 -158 109 -25 49 -47 155 -55 272 -6 81 -19 119 -29 86z" id="svg_1" fill="#c4d8ed"/>
 <path d="M1645 7546 c-56 -25 -95 -93 -95 -166 0 -73 46 -266 186 -770 30 -107 85 -307 123 -445 38 -137 85 -304 104 -370 58 -199 198 -667 213 -714 8 -24 12 -46 10 -49 -6 -5 -213 56 -476 142 -91 29 -196 59 -234 67 -63 12 -71 12 -105 -6 -55 -30 -85 -100 -86 -195 0 -97 18 -131 88 -166 54 -28 425 -136 752 -219 105 -27 193 -53 197 -59 3 -5 25 -89 49 -185 23 -97 70 -288 105 -426 35 -137 72 -290 83 -340 11 -49 37 -157 56 -240 20 -82 49 -208 65 -280 17 -71 55 -238 85 -370 30 -132 68 -298 85 -370 103 -454 136 -561 189 -602 24 -19 108 -15 191 8 84 23 73 28 123 -50 12 -19 34 -43 48 -53 34 -26 101 -34 139 -18 116 48 280 374 471 940 81 236 144 465 283 1022 73 290 135 530 139 534 9 9 102 -15 180 -47 42 -17 90 -48 125 -80 75 -67 95 -75 140 -51 51 26 76 80 80 174 7 135 -45 233 -146 276 -51 22 -231 72 -259 72 -49 1 -51 -20 52 515 8 44 37 226 65 405 80 520 138 852 200 1145 53 253 62 353 36 404 -22 42 -81 89 -121 97 -76 14 -117 -16 -174 -124 -60 -117 -93 -290 -206 -1092 -72 -509 -97 -676 -125 -820 -10 -52 -33 -169 -50 -260 -41 -219 -33 -199 -83 -190 -23 5 -69 13 -102 19 -33 6 -105 20 -160 30 -55 11 -192 38 -305 60 -253 50 -697 141 -845 174 -60 14 -127 28 -147 31 -22 4 -39 14 -42 24 -3 9 -72 256 -155 547 -176 626 -316 1177 -426 1682 -47 215 -77 297 -123 347 -50 53 -132 71 -197 42z m1060 -3021 c39 -9 90 -20 115 -25 25 -5 142 -30 260 -55 273 -58 617 -127 988 -197 34 -6 62 -15 62 -19 0 -7 -100 -456 -119 -534 -6 -22 -19 -78 -30 -125 -127 -544 -231 -868 -394 -1227 -63 -139 -104 -214 -157 -293 -48 -70 -78 -98 -84 -79 -6 18 -84 236 -143 399 -70 194 -113 355 -357 1310 -121 474 -216 852 -216 856 0 5 -4 6 75 -11z" id="svg_2" fill="#c4d8ed"/>
 <path d="M8495 7543 c-36 -9 -87 -55 -102 -92 -29 -69 -6 -215 92 -571 13 -47 46 -168 74 -270 28 -102 81 -293 116 -425 36 -132 76 -276 90 -320 13 -44 42 -141 64 -215 79 -270 153 -516 172 -574 10 -33 18 -61 16 -62 -4 -4 -124 33 -417 127 -118 38 -248 76 -289 84 -68 15 -75 14 -110 -2 -55 -27 -84 -88 -89 -188 -3 -71 -1 -84 20 -115 34 -50 101 -81 288 -135 179 -51 522 -142 636 -170 39 -9 76 -20 83 -24 6 -4 27 -70 46 -147 19 -76 56 -222 81 -324 55 -216 98 -397 155 -640 22 -96 49 -211 59 -255 11 -44 53 -228 95 -410 170 -746 191 -833 226 -928 40 -111 57 -127 134 -127 52 0 135 15 185 34 10 4 26 -13 52 -54 45 -73 86 -95 161 -87 40 3 56 11 91 46 85 83 199 310 321 636 152 409 197 565 387 1327 l123 498 35 -6 c19 -4 77 -22 128 -42 73 -27 106 -47 159 -93 36 -33 75 -59 85 -59 35 0 73 28 98 72 22 37 25 55 24 133 -1 104 -21 160 -75 212 -45 43 -101 66 -239 99 -63 15 -119 31 -123 34 -8 7 9 111 73 445 17 88 35 192 41 230 6 39 14 95 19 125 5 30 16 105 25 165 23 159 84 532 95 585 5 25 18 97 30 160 12 63 41 216 66 339 59 297 63 352 32 411 -43 80 -128 118 -194 86 -37 -17 -96 -101 -125 -176 -30 -80 -92 -415 -139 -755 -11 -82 -25 -179 -30 -215 -6 -36 -31 -209 -56 -385 -24 -176 -55 -378 -69 -450 -42 -225 -95 -499 -99 -502 -6 -6 -1094 207 -1411 278 -49 11 -116 24 -147 30 -31 6 -63 16 -71 22 -27 22 -368 1264 -500 1822 -15 61 -38 157 -51 215 -14 58 -41 178 -60 268 -37 173 -60 232 -110 283 -49 51 -106 68 -171 52z m1210 -3068 c88 -19 225 -48 305 -65 197 -42 653 -132 905 -178 48 -9 52 26 -31 -342 -159 -708 -238 -989 -373 -1330 -67 -171 -193 -434 -242 -508 -35 -51 -79 -102 -89 -102 -4 0 -12 19 -19 42 -7 24 -42 122 -78 218 -120 323 -147 421 -458 1645 -53 209 -112 440 -131 514 -19 74 -34 140 -34 147 0 9 11 9 43 2 23 -5 114 -25 202 -43z" id="svg_3" fill="#c4d8ed"/>
 <path d="M7394 6875 c-18 -8 -42 -27 -54 -42 l-23 -28 7 -330 c3 -181 10 -402 16 -490 54 -878 58 -1971 9 -2285 -5 -36 -20 -85 -32 -110 -19 -40 -26 -45 -59 -48 -130 -11 -291 212 -454 630 -107 273 -300 828 -409 1178 -104 331 -142 455 -240 775 -52 173 -79 217 -155 258 -79 41 -184 34 -207 -13 -6 -14 -17 -88 -23 -165 -18 -233 -45 -560 -59 -725 -39 -437 -66 -768 -101 -1210 -27 -336 -52 -590 -86 -860 -16 -127 -23 -224 -19 -254 15 -115 101 -203 223 -226 38 -7 50 -5 65 7 58 53 86 343 127 1328 10 225 15 321 40 705 25 390 33 510 44 715 l11 220 23 -75 c212 -690 476 -1454 658 -1905 202 -498 378 -745 560 -786 46 -10 60 -10 98 5 157 60 227 291 280 936 26 306 36 670 46 1645 11 1048 13 1011 -50 1087 -57 69 -159 96 -236 63z" id="svg_4" fill="#c4d8ed"/>
 <path d="M14245 6871 c-49 -12 -74 -30 -91 -64 -15 -29 -16 -65 -11 -347 4 -173 13 -436 21 -585 31 -569 39 -826 39 -1305 -1 -635 -18 -892 -66 -989 -29 -60 -45 -68 -98 -52 -81 24 -199 163 -287 336 -145 288 -404 1025 -684 1945 -152 502 -136 459 -193 517 -66 68 -131 87 -217 63 -47 -13 -55 -36 -68 -205 -6 -71 -15 -184 -21 -250 -5 -66 -14 -174 -19 -240 -6 -66 -15 -174 -20 -240 -31 -357 -86 -1018 -100 -1200 -20 -268 -44 -509 -82 -815 -31 -259 -31 -315 2 -380 23 -44 87 -104 133 -124 45 -18 109 -28 123 -19 64 44 91 309 134 1338 10 225 15 321 40 705 24 363 32 507 44 710 l11 215 17 -50 c9 -27 46 -144 83 -260 272 -863 572 -1683 727 -1989 185 -363 375 -522 531 -447 125 60 193 262 241 711 43 405 54 706 66 1852 7 643 7 962 0 993 -27 121 -146 203 -255 176z" id="svg_5" fill="#c4d8ed"/>
 <path d="M1127 2333 c-43 -525 -80 -688 -182 -814 -32 -39 -106 -93 -160 -117 -80 -34 -219 -66 -360 -82 -55 -7 -131 -16 -170 -20 -38 -5 -96 -9 -127 -10 -55 0 -58 -1 -58 -25 0 -29 11 -32 115 -39 387 -24 622 -85 729 -190 127 -126 167 -283 212 -844 6 -76 9 -82 29 -82 26 0 35 30 35 120 0 31 4 92 10 136 5 43 14 124 20 179 18 158 76 367 114 412 6 7 27 33 46 57 19 24 46 50 60 58 14 7 27 16 30 19 11 14 107 50 184 70 44 12 137 27 206 35 69 8 150 19 181 24 30 6 80 10 111 10 71 0 88 7 88 34 0 21 -7 22 -142 34 -518 45 -691 114 -787 316 -34 70 -75 225 -85 321 -4 33 -13 114 -21 180 -8 66 -15 145 -15 176 0 90 -9 119 -35 119 -20 0 -23 -6 -28 -77z" id="svg_6" fill="#c4d8ed"/>
 </g></g></svg>