<svg id="Layer_1" data-name="Layer 1" xmlns="http://www.w3.org/2000/svg" viewBox="0 0 80 80.01">
  <defs>
    <style>
      .cls-1 {
        fill: #ffd400;
      }

      .cls-2 {
        fill: #e0e1e3;
      }

      .cls-3 {
        fill: #fff;
      }
    </style>
  </defs>
  <title>instagram-white</title>
  <path class="cls-1" d="M65.75,35.06a21.076,21.076,0,1,0,6.17,14.9A21.01,21.01,0,0,0,65.75,35.06ZM59.44,58.55a12.155,12.155,0,1,1,3.55-8.59A12.149,12.149,0,0,1,59.44,58.55Z" transform="translate(-10.49 -10.31)"/>
  <path class="cls-1" d="M75.35,25.81a5.353,5.353,0,1,1-3.79-1.57h0.01A5.337,5.337,0,0,1,75.35,25.81Z" transform="translate(-10.49 -10.31)"/>
  <path class="cls-2" d="M66.36,10.31H34.63A24.092,24.092,0,0,0,10.49,34.45V66.18A24.092,24.092,0,0,0,34.63,90.32H66.36A24.083,24.083,0,0,0,90.49,66.18V34.45A24.083,24.083,0,0,0,66.36,10.31ZM83.71,63.49A20,20,0,0,1,63.67,83.53H37.32A20,20,0,0,1,17.28,63.49V37.14A20,20,0,0,1,37.32,17.1H63.67A20,20,0,0,1,83.71,37.14V63.49Z" transform="translate(-10.49 -10.31)"/>
  <path class="cls-3" d="M65.75,35.06a21.076,21.076,0,1,0,6.17,14.9A21.01,21.01,0,0,0,65.75,35.06ZM59.44,58.55a12.155,12.155,0,1,1,3.55-8.59A12.149,12.149,0,0,1,59.44,58.55Z" transform="translate(-10.49 -10.31)"/>
  <path class="cls-3" d="M76.92,29.6a5.355,5.355,0,1,1-5.36-5.36h0.01A5.36,5.36,0,0,1,76.92,29.6Z" transform="translate(-10.49 -10.31)"/>
  <path class="cls-2" d="M76.92,29.6a5.355,5.355,0,1,1-5.36-5.36h0.01A5.36,5.36,0,0,1,76.92,29.6Z" transform="translate(-10.49 -10.31)"/>
  <path class="cls-2" d="M65.75,35.06a21.076,21.076,0,1,0,6.17,14.9A21.01,21.01,0,0,0,65.75,35.06ZM59.44,58.55a12.155,12.155,0,1,1,3.55-8.59A12.149,12.149,0,0,1,59.44,58.55Z" transform="translate(-10.49 -10.31)"/>
</svg>
