<!DOCTYPE svg PUBLIC "-//W3C//DTD SVG 20010904//EN" "http://www.w3.org/TR/2001/REC-SVG-20010904/DTD/svg10.dtd">
<svg version="1.0" xmlns="http://www.w3.org/2000/svg" width="832px" height="981px" viewBox="0 0 8320 9810" preserveAspectRatio="xMidYMid meet">
<g id="layer101" fill="#e9e9e9" stroke="none">
 <path d="M2360 9794 c-70 -30 -121 -99 -134 -180 -5 -30 34 -303 148 -1025 313 -1979 445 -2781 467 -2827 25 -50 75 -87 139 -101 28 -7 262 -11 612 -11 311 0 635 -5 720 -10 1212 -82 2110 -522 2690 -1320 292 -403 512 -926 634 -1508 19 -92 39 -171 45 -177 18 -18 83 29 199 145 216 215 330 438 394 767 90 462 32 1052 -159 1628 -150 455 -349 795 -640 1094 -442 455 -1021 711 -1803 797 -86 9 -290 19 -492 23 l-345 6 -65 31 c-118 56 -185 142 -219 280 -11 43 -90 520 -175 1059 -86 539 -160 1004 -166 1033 -22 119 -108 229 -218 280 l-57 27 -770 2 c-672 2 -774 0 -805 -13z"/>
 <path d="M205 8721 c-47 -12 -87 -36 -126 -78 -46 -47 -65 -86 -74 -143 -5 -34 147 -1013 635 -4110 719 -4559 643 -4132 757 -4251 71 -75 152 -115 260 -130 52 -7 639 -9 1773 -7 1684 4 1696 4 1825 25 475 80 800 175 1087 319 528 265 857 703 960 1274 29 165 35 483 14 689 -48 448 -208 995 -407 1392 -412 823 -1120 1315 -2129 1483 -324 54 -398 58 -1155 66 -503 5 -725 11 -760 20 -82 20 -206 85 -259 136 -66 64 -120 151 -150 242 -29 88 -49 202 -256 1502 -83 520 -173 1082 -200 1249 -26 167 -53 308 -60 315 -13 13 -1683 20 -1735 7z"/>
 </g>

</svg>