<!DOCTYPE svg PUBLIC "-//W3C//DTD SVG 20010904//EN" "http://www.w3.org/TR/2001/REC-SVG-20010904/DTD/svg10.dtd">
<svg version="1.0" xmlns="http://www.w3.org/2000/svg" width="849px" height="1200px" viewBox="0 0 8490 12000" preserveAspectRatio="xMidYMid meet">
<g id="layer101" fill="#020202" stroke="none">
<path d="M0 6000 l0 -6000 4245 0 4245 0 0 6000 0 6000 -4245 0 -4245 0 0 -6000z"/>
</g>
<g id="layer102" fill="#1f2020" stroke="none">
<path d="M0 11429 l0 -571 24 19 c39 31 267 220 346 288 41 36 104 84 140 108 36 24 103 71 150 105 47 34 88 62 93 62 4 0 7 -24 7 -54 l0 -55 -61 -38 c-240 -150 -298 -194 -465 -352 -49 -47 -123 -114 -162 -149 -65 -57 -72 -67 -72 -100 0 -40 13 -58 142 -204 78 -88 138 -169 166 -225 12 -23 45 -72 73 -110 130 -170 243 -382 479 -892 195 -424 265 -564 302 -607 19 -23 85 -140 148 -260 62 -121 122 -230 132 -244 41 -54 205 -212 249 -241 38 -24 194 -89 215 -89 17 0 98 202 120 300 28 126 40 160 53 160 45 0 -3 -253 -75 -397 -31 -63 -38 -85 -29 -93 6 -5 77 -21 156 -34 82 -14 206 -44 287 -71 157 -50 232 -63 391 -67 l103 -3 13 47 c20 81 64 131 295 336 136 121 236 176 445 245 232 76 357 97 580 97 295 0 508 -25 713 -85 233 -67 362 -137 568 -311 62 -52 116 -94 120 -94 5 0 39 -24 75 -54 58 -46 74 -54 130 -62 137 -19 262 -9 429 34 153 40 387 117 505 165 33 14 76 41 95 60 44 43 128 203 173 328 149 414 281 755 444 1149 63 151 139 338 170 415 30 77 138 307 240 510 180 361 263 539 277 600 4 17 23 65 43 107 34 74 35 78 19 103 -9 14 -25 25 -35 25 -29 0 -175 93 -243 155 -193 175 -452 283 -951 395 -231 51 -358 73 -368 63 -5 -5 -17 -33 -27 -63 -16 -46 -23 -56 -44 -58 l-26 -3 25 78 c55 169 59 178 87 181 24 3 25 2 15 -28 -6 -17 -9 -33 -7 -36 3 -2 45 -9 93 -15 144 -16 561 -114 719 -168 64 -23 76 -21 76 13 0 12 14 71 30 129 17 59 30 112 30 117 0 7 -1162 10 -3395 10 -2864 0 -3395 -2 -3395 -14 0 -11 61 -339 75 -401 3 -17 -4 -24 -39 -37 l-42 -16 -37 192 c-20 105 -40 210 -43 234 l-7 42 -368 0 -369 0 0 -571z m1746 544 c3 -10 11 -31 19 -48 8 -16 17 -50 20 -75 4 -25 13 -67 21 -94 8 -27 14 -51 14 -53 0 -2 -11 -3 -24 -3 -19 0 -26 8 -36 48 -7 26 -14 48 -15 50 -3 4 -139 -49 -171 -67 -39 -23 -275 -124 -334 -144 -50 -16 -222 -31 -233 -20 -4 4 16 14 45 23 81 26 475 208 527 243 25 18 66 41 90 52 43 19 43 19 37 62 -5 38 -3 43 15 43 11 0 22 -8 25 -17z m79 -353 c3 -5 4 -10 1 -10 -3 0 -8 5 -11 10 -3 6 -4 10 -1 10 3 0 8 -4 11 -10z m2168 -14 c78 -32 105 -97 137 -326 53 -377 128 -736 218 -1041 19 -64 19 -67 2 -82 -10 -8 -22 -23 -28 -33 -13 -23 -80 -21 -104 4 -47 49 -172 595 -243 1068 -19 124 -37 229 -40 233 -30 29 -116 -266 -169 -579 -30 -174 -40 -207 -67 -215 -31 -10 -109 6 -118 24 -10 19 -127 458 -137 514 -3 21 -10 35 -15 30 -10 -10 -62 -234 -89 -388 -22 -120 -45 -308 -55 -450 -9 -119 -10 -123 -52 -134 -46 -13 -91 -3 -108 23 -26 41 19 431 86 746 37 177 109 443 138 510 29 70 97 93 157 53 30 -19 36 -39 84 -282 22 -113 42 -207 45 -209 2 -2 7 9 11 24 29 129 68 265 95 335 58 150 153 217 252 175z m-2178 -6 c3 -5 4 -10 1 -10 -3 0 -8 5 -11 10 -3 6 -4 10 -1 10 3 0 8 -4 11 -10z m809 -39 c174 -86 323 -317 372 -580 39 -206 -32 -445 -174 -588 -87 -88 -163 -128 -267 -143 -44 -6 -99 -13 -121 -17 -63 -8 -150 35 -220 110 -154 165 -221 370 -212 647 4 113 9 148 32 215 67 196 178 327 324 382 24 8 66 12 119 10 67 -3 92 -9 147 -36z m3106 24 c7 -8 18 -15 25 -15 29 0 32 -25 14 -130 -21 -117 -43 -385 -34 -400 3 -6 20 -10 36 -10 33 0 89 -46 89 -73 0 -27 -56 -77 -87 -77 -15 0 -33 -4 -39 -8 -7 -4 -16 -77 -23 -182 -17 -252 -39 -449 -56 -506 -19 -64 -52 -96 -100 -96 -20 0 -45 8 -55 17 -63 57 -185 542 -295 1167 -34 193 -33 219 6 252 38 32 74 33 93 4 8 -13 31 -108 51 -213 20 -104 38 -197 40 -205 4 -11 28 -20 75 -28 39 -7 76 -12 84 -12 9 0 16 39 25 156 13 177 35 306 57 340 23 34 73 44 94 19z m-3870 -48 c0 -6 -9 0 -20 13 -11 13 -20 25 -20 28 0 3 9 -3 20 -13 11 -10 20 -23 20 -28z m-68 0 c21 -28 25 -40 19 -68 -4 -20 -16 -38 -29 -45 -12 -6 -102 -14 -200 -17 -97 -4 -235 -13 -307 -22 -71 -8 -169 -15 -217 -15 -48 0 -89 -4 -92 -9 -7 -11 3 -66 98 -501 41 -190 82 -387 91 -439 l18 -95 -32 -28 c-20 -18 -43 -28 -62 -28 -25 0 -33 6 -44 33 -22 54 -220 960 -230 1057 -5 43 -2 62 13 90 29 55 70 70 187 70 55 0 159 7 230 16 109 13 250 23 490 32 34 2 44 -3 67 -31z m5313 -5 c33 -24 47 -75 50 -190 2 -64 15 -214 29 -332 31 -266 43 -424 52 -651 11 -302 -4 -359 -99 -359 -25 0 -49 6 -56 13 -7 9 -11 79 -10 208 1 216 -8 343 -51 729 -39 353 -44 446 -31 496 18 68 79 113 116 86z m-891 -34 c30 -13 42 -58 31 -115 -4 -21 -4 -158 0 -306 l8 -267 90 -46 c144 -73 267 -164 344 -256 158 -188 94 -412 -153 -534 -215 -107 -468 -5 -544 220 -24 71 -25 124 -5 172 11 28 19 35 37 32 27 -4 35 -30 47 -150 1 -5 6 -8 11 -8 13 0 14 456 1 464 -19 12 -23 77 -6 102 14 22 15 57 9 312 -6 266 -6 291 11 326 11 24 30 44 49 52 39 16 40 17 70 2z m291 2 c3 -5 4 -10 1 -10 -3 0 -8 5 -11 10 -3 6 -4 10 -1 10 3 0 8 -4 11 -10z m-4596 -116 c17 -47 31 -94 31 -105 0 -10 5 -19 10 -19 18 0 32 -53 25 -97 -3 -24 -10 -43 -14 -43 -8 0 -41 88 -41 111 0 9 -9 43 -20 76 -19 60 -37 163 -27 163 3 0 19 -38 36 -86z m4460 -526 c0 -7 -3 -21 -7 -30 -6 -15 -11 -16 -32 -5 -14 7 -26 20 -28 30 -3 13 4 17 32 17 23 0 36 -5 35 -12z m-4210 -557 c-1 -20 -3 -28 -6 -18 -6 24 -33 22 -33 -3 0 -13 7 -20 19 -20 14 0 17 -6 13 -25 -2 -14 -9 -25 -14 -25 -6 0 -8 9 -5 20 3 11 0 18 -7 17 -7 -1 -12 22 -14 68 l-3 69 25 -24 c19 -17 26 -33 25 -59z m-14 -141 c3 -5 4 -10 1 -10 -3 0 -8 5 -11 10 -3 6 -4 10 -1 10 3 0 8 -4 11 -10z m-1 -36 c3 -8 2 -12 -4 -9 -6 3 -10 10 -10 16 0 14 7 11 14 -7z m1411 -190 l18 -86 45 6 c25 3 76 6 113 6 l69 0 0 44 c0 89 40 130 84 87 20 -21 21 -31 21 -224 -1 -276 -26 -379 -99 -414 -79 -37 -144 23 -244 226 -77 154 -102 238 -102 337 0 74 16 104 55 104 19 0 24 -10 40 -86z m1000 -20 l18 -86 36 6 c20 3 71 6 114 6 l77 0 0 44 c0 89 40 130 84 87 20 -21 21 -30 20 -224 0 -272 -24 -376 -95 -412 -77 -40 -150 26 -244 219 -83 171 -97 213 -103 319 -5 96 8 127 53 127 19 0 24 -10 40 -86z m-461 40 c3 -9 6 -30 6 -47 0 -82 42 -157 87 -157 31 0 43 33 43 114 0 46 4 67 16 77 37 30 57 -60 34 -156 -10 -46 -59 -95 -93 -95 -33 0 -81 34 -107 75 -28 45 -40 165 -20 190 16 19 26 19 34 -1z m1000 -20 c3 -9 6 -30 6 -47 0 -81 42 -157 85 -157 31 0 45 38 45 119 0 56 3 70 17 75 38 15 55 -65 33 -159 -10 -46 -59 -95 -93 -95 -33 0 -81 34 -107 75 -28 45 -40 165 -20 190 16 19 26 19 34 -1z m1276 -86 c0 -31 -4 -38 -20 -38 -17 0 -20 7 -20 39 0 34 3 40 20 38 16 -1 20 -8 20 -39z m-4215 -48 c3 -5 1 -10 -4 -10 -6 0 -11 5 -11 10 0 6 2 10 4 10 3 0 8 -4 11 -10z m2 -597 c-4 -3 -7 0 -7 7 0 7 3 10 7 7 3 -4 3 -10 0 -14z m4540 -1141 c10 -17 25 -35 34 -37 27 -9 41 -32 34 -55 -15 -46 -52 -13 -108 96 -20 40 -37 78 -37 84 0 16 54 -45 77 -88z"/>
<path d="M3423 11223 c4 -3 10 -3 14 0 3 4 0 7 -7 7 -7 0 -10 -3 -7 -7z"/>
<path d="M5436 10921 c-6 -8 86 -426 95 -435 4 -4 6 10 6 31 1 21 6 114 13 206 6 93 9 171 6 174 -10 10 -116 31 -120 24z"/>
<path d="M6247 10458 c-6 -185 -21 -255 -64 -286 l-27 -19 40 -26 c55 -37 131 -51 194 -38 64 14 101 33 151 78 116 105 90 195 -101 345 -54 43 -160 108 -176 108 -8 0 -13 -52 -17 -162z m121 -117 c2 -161 1 -171 -16 -171 -17 0 -20 11 -26 92 -3 50 -6 134 -6 186 l0 94 23 -14 c21 -15 22 -22 25 -187z"/>
<path d="M7735 11943 c-26 -94 -67 -216 -81 -244 -12 -25 -12 -25 84 -73 114 -57 195 -112 283 -195 80 -75 187 -152 261 -188 31 -16 59 -34 62 -41 3 -7 -17 -59 -44 -115 -27 -56 -61 -136 -76 -177 -14 -41 -96 -217 -182 -390 -218 -443 -248 -509 -297 -650 -43 -124 -153 -419 -365 -980 -61 -162 -127 -340 -147 -395 -51 -142 -106 -265 -166 -374 -46 -83 -62 -102 -147 -173 -65 -55 -126 -95 -195 -129 -172 -83 -582 -189 -731 -189 -61 0 -175 28 -226 54 -45 23 -48 24 -48 6 0 -26 -76 -88 -125 -101 -22 -6 -57 -15 -77 -21 -50 -15 -124 -5 -159 21 -18 14 -37 20 -49 16 -28 -9 -167 -166 -185 -208 l-15 -37 75 -71 c87 -83 148 -170 210 -301 l44 -93 0 45 c1 70 -27 227 -56 318 -24 76 -25 84 -11 99 12 11 25 14 44 9 39 -10 149 -125 213 -224 30 -45 55 -81 57 -79 2 1 -2 45 -8 95 -9 71 -9 97 0 112 9 15 5 32 -23 92 -35 77 -38 103 -14 119 21 13 115 11 192 -6 71 -15 167 -62 167 -82 0 -7 37 -30 83 -51 72 -35 259 -151 313 -195 11 -9 51 -39 89 -68 39 -29 73 -56 76 -61 3 -5 15 -10 28 -13 22 -4 47 -23 134 -100 96 -87 35 -94 -72 -8 -33 26 -60 53 -61 58 0 6 -26 29 -58 53 -31 24 -79 61 -107 83 -113 89 -425 283 -425 264 0 -2 -34 12 -76 31 -63 28 -163 53 -221 54 -20 0 -16 -14 26 -76 56 -85 129 -233 212 -434 79 -192 174 -456 191 -535 20 -88 20 -24 -2 188 -26 261 -26 300 -2 295 73 -14 164 -1088 148 -1748 -3 -135 -14 -453 -23 -707 l-16 -462 21 -98 c39 -173 25 -381 -26 -423 -18 -14 -21 -38 -31 -290 -6 -151 -11 -333 -12 -405 0 -151 -7 -215 -43 -424 -15 -84 -25 -158 -23 -164 6 -18 74 51 124 126 72 107 96 123 137 92 11 -8 26 -15 35 -15 8 0 22 -7 32 -16 17 -15 17 -20 4 -50 -22 -53 -99 -155 -159 -213 -62 -57 -124 -90 -173 -91 -36 0 -29 16 -73 -170 -33 -139 -75 -263 -125 -367 -44 -90 -46 -93 -91 -106 -36 -10 -50 -21 -68 -53 -21 -37 -24 -39 -66 -36 -50 3 -90 33 -90 66 0 12 34 89 77 173 42 84 74 155 70 159 -10 10 -96 -11 -149 -36 -24 -11 -58 -24 -76 -29 -28 -8 -34 -6 -56 20 -13 15 -30 45 -36 64 -16 47 -6 58 93 106 77 37 81 38 180 35 145 -3 198 -33 217 -121 6 -27 9 -24 29 45 13 41 33 119 46 175 l22 100 -27 32 c-32 36 -55 121 -48 177 3 30 1 35 -11 30 -9 -4 -38 -14 -64 -23 -43 -14 -47 -18 -42 -41 3 -14 8 -56 11 -95 5 -62 3 -74 -18 -104 -32 -48 -71 -68 -155 -81 -148 -23 -298 20 -402 116 -52 48 -54 52 -47 87 4 21 20 52 35 70 l29 31 55 -51 c73 -66 163 -103 251 -103 36 0 71 3 80 6 20 8 20 34 2 78 l-14 33 -113 5 c-103 4 -121 7 -187 38 -83 38 -164 116 -200 194 -12 25 -24 46 -27 46 -2 0 -32 -46 -65 -102 -36 -61 -90 -179 -133 -287 -75 -191 -99 -228 -132 -201 -8 7 -15 23 -15 35 0 42 59 248 105 370 119 314 550 1125 727 1369 15 21 28 43 28 47 0 13 -197 109 -223 109 -33 0 -150 -41 -227 -80 -315 -159 -749 -601 -991 -1007 -37 -64 -71 -124 -74 -134 -11 -34 -65 -36 -65 -3 0 27 89 225 156 349 170 312 354 537 667 814 88 79 125 116 115 121 -35 19 -246 52 -358 57 -164 7 -301 -14 -419 -63 -112 -46 -124 -49 -141 -30 -19 23 10 73 83 142 31 31 57 57 57 58 0 1 -21 3 -46 5 -130 6 -271 -107 -362 -292 -94 -190 -221 -541 -237 -655 -5 -36 -5 -37 47 -62 71 -34 103 -89 102 -177 -1 -93 -45 -177 -149 -279 l-82 -82 -11 -343 c-13 -363 -18 -412 -44 -417 -18 -4 -38 44 -38 92 0 38 -99 558 -109 568 -3 4 -35 0 -71 -9 -99 -23 -222 -14 -294 21 -79 39 -111 88 -110 170 0 78 26 129 108 214 56 59 239 192 283 206 17 5 19 19 19 153 1 178 42 434 98 608 19 60 34 111 32 112 -2 2 -59 -25 -127 -61 -192 -100 -360 -242 -449 -381 -44 -67 -61 -76 -95 -51 -19 13 -18 16 18 90 20 42 37 78 37 81 0 3 -17 -3 -38 -14 -66 -33 -184 -72 -203 -66 -10 3 -20 14 -23 23 -17 60 -36 154 -38 192 l-3 45 -57 -75 c-69 -92 -116 -180 -154 -289 -23 -65 -34 -83 -52 -88 -13 -3 -27 -2 -32 3 -5 5 -3 61 5 129 7 66 16 151 20 189 7 78 67 313 94 369 10 20 17 37 15 37 -15 0 -139 -63 -167 -84 -19 -14 -40 -26 -47 -26 -25 0 -175 -167 -219 -244 -76 -134 -107 -313 -98 -570 9 -245 59 -450 199 -801 145 -364 485 -860 702 -1024 146 -110 201 -141 391 -223 207 -89 328 -123 488 -138 61 -6 207 -26 322 -45 219 -36 656 -81 930 -95 88 -5 192 -12 231 -16 92 -9 249 10 391 47 110 28 320 102 385 135 50 25 226 143 283 189 27 22 66 51 85 65 54 37 236 217 301 297 38 48 83 125 133 228 41 86 91 180 111 209 41 62 107 249 135 381 24 117 55 324 75 500 36 316 73 518 125 680 15 50 38 129 49 177 30 129 114 416 160 548 46 134 139 347 238 545 216 432 281 642 290 945 4 129 2 184 -12 255 -19 104 -80 295 -102 322 -14 17 -14 17 -8 -1 3 -11 11 -66 17 -123 11 -112 5 -137 -35 -131 -16 2 -32 28 -63 100 -23 54 -68 137 -100 185 l-58 88 -8 -40 c-4 -22 -19 -105 -33 -185 -14 -80 -64 -314 -111 -520 -128 -559 -150 -662 -173 -815 -12 -77 -53 -282 -91 -455 -91 -416 -119 -563 -131 -690 -11 -105 -24 -204 -79 -570 -17 -107 -46 -319 -65 -470 -30 -233 -77 -521 -100 -612 -4 -16 1 -33 15 -51 28 -35 21 -64 -24 -111 -18 -20 -48 -65 -67 -101 -39 -77 -115 -175 -135 -175 -30 0 -24 31 25 116 27 49 53 101 56 115 7 27 6 27 -78 39 -153 21 -161 15 -171 -137 -3 -50 -9 -98 -12 -107 -7 -19 -32 -27 -84 -28 -66 -1 -73 11 -65 121 13 191 40 263 113 299 67 34 146 36 328 7 l41 -7 11 68 c54 310 134 891 163 1169 21 208 43 355 90 600 38 202 120 580 152 705 14 52 29 149 36 215 18 199 65 454 206 1120 117 553 139 895 70 1113 -14 44 -31 84 -38 90 -7 6 -36 14 -64 18 l-52 6 25 -60 c42 -105 65 -272 71 -527 6 -244 2 -275 -37 -275 -22 0 -23 1 -45 149 -33 224 -126 418 -259 538 -53 48 -146 118 -146 110 0 -3 18 -36 40 -73 46 -80 49 -94 16 -94 -19 0 -31 13 -59 63 -20 34 -65 99 -101 145 -56 71 -64 86 -55 104 6 11 17 17 25 14 8 -3 74 -46 148 -96 211 -143 292 -234 372 -417 35 -81 49 -102 40 -63 -2 14 -8 61 -11 105 -12 165 -59 341 -98 374 -10 7 -17 24 -17 38 0 24 1 24 83 23 45 -1 89 1 99 5 35 14 100 -38 137 -112 41 -81 54 -175 56 -380 l2 -192 43 -60 c24 -32 62 -94 84 -137 23 -43 42 -70 44 -61 5 24 -25 176 -48 241 -21 62 -18 86 10 86 13 0 25 -16 39 -55 12 -31 21 -58 21 -60 0 -3 31 -35 69 -72 164 -163 238 -461 200 -811 -26 -245 -93 -436 -304 -877 -215 -448 -275 -598 -386 -970 -33 -110 -86 -285 -119 -390 -58 -185 -61 -199 -100 -510 -22 -176 -49 -365 -60 -420 -10 -55 -24 -134 -30 -175 -22 -152 -87 -368 -150 -498 -102 -210 -236 -404 -345 -498 -31 -27 -89 -78 -129 -113 -39 -35 -107 -88 -152 -117 -97 -64 -288 -165 -364 -193 -140 -51 -356 -111 -469 -130 -167 -28 -235 -27 -621 8 -63 5 -191 15 -285 22 -93 6 -235 20 -315 30 -80 11 -192 24 -250 29 -58 6 -139 17 -180 25 -41 8 -115 19 -165 25 -297 34 -654 202 -886 417 -191 176 -318 328 -422 505 -146 249 -195 341 -295 563 -100 222 -129 327 -163 595 -37 298 -18 546 57 748 l35 92 -51 171 c-93 311 -189 544 -399 968 -143 290 -221 503 -259 706 -12 65 -16 145 -16 290 0 184 3 208 27 297 57 212 164 367 272 394 29 7 29 10 10 -89 -24 -125 -19 -130 35 -33 28 50 56 97 64 105 7 9 25 52 40 96 66 200 217 394 331 427 22 6 47 17 56 25 20 16 49 17 49 1 0 -7 -12 -67 -25 -133 -14 -66 -25 -132 -25 -146 l0 -27 37 19 c21 10 51 19 68 19 27 0 42 13 109 90 153 177 310 292 461 335 69 21 194 15 232 -10 21 -14 32 -14 104 0 106 20 142 19 162 -3 25 -27 21 -42 -23 -101 -26 -35 -48 -80 -64 -134 -27 -92 -40 -157 -31 -157 3 0 28 22 55 48 27 26 61 54 77 62 15 8 50 30 76 49 104 73 216 101 252 61 17 -19 17 -22 2 -62 -9 -23 -15 -43 -13 -45 1 -2 29 13 62 32 57 34 111 55 147 55 15 0 17 11 17 97 0 123 -15 156 -119 262 -88 90 -113 102 -144 73 -20 -19 -32 -20 -117 -17 -172 8 -259 33 -310 92 -29 33 -35 35 -73 30 -69 -10 -284 11 -402 39 -60 14 -187 43 -281 64 -171 39 -235 59 -264 84 -8 7 -49 23 -90 36 -121 36 -185 75 -304 190 -127 122 -203 231 -345 495 -112 207 -345 677 -434 875 -186 414 -330 665 -527 920 -45 58 -96 128 -115 155 -18 28 -49 66 -69 84 l-36 35 0 -5267 0 -5267 4245 0 4245 0 0 6000 0 6000 -370 0 -369 0 -16 -57z m-6941 -2838 c17 -25 22 -75 8 -75 -12 0 -42 56 -42 79 0 28 14 27 34 -4z m6798 -72 c-5 -10 -12 -46 -16 -80 -11 -96 -34 -163 -70 -199 -37 -37 -81 -53 -99 -35 -8 8 0 22 35 54 38 35 47 51 57 97 6 30 18 83 27 118 16 58 19 62 46 62 24 0 27 -3 20 -17z m-6588 -333 c5 -5 6 -16 2 -25 -6 -16 -9 -16 -29 -2 -12 8 -24 22 -25 32 -3 14 1 16 20 10 12 -4 27 -11 32 -15z m321 -4250 c3 -5 4 -10 1 -10 -3 0 -8 5 -11 10 -3 6 -4 10 -1 10 3 0 8 -4 11 -10z m5221 -3387 c-10 -10 -19 5 -10 18 6 11 8 11 12 0 2 -7 1 -15 -2 -18z m-50 -69 c-21 -20 -28 -17 -14 5 7 11 16 17 20 15 5 -3 2 -12 -6 -20z m-58 -56 c-5 -15 -69 -38 -82 -30 -6 3 4 10 21 16 18 6 35 14 39 19 12 11 26 8 22 -5z"/>
<path d="M5670 7465 c0 -8 7 -15 15 -15 8 0 15 7 15 15 0 8 -7 15 -15 15 -8 0 -15 -7 -15 -15z"/>
<path d="M5097 7273 c-4 -6 -9 -132 -12 -280 -6 -265 -6 -270 23 -413 l28 -145 90 -48 c159 -87 336 -196 469 -289 121 -85 304 -223 350 -265 11 -10 46 -40 78 -67 l58 -49 -6 94 c-17 245 -91 524 -256 960 -33 87 -77 196 -98 242 -21 46 -42 98 -46 116 -3 17 -13 31 -20 31 -12 0 -12 -8 0 -48 18 -59 17 -150 -1 -221 -19 -75 -30 -83 -49 -35 -38 93 -115 242 -142 271 -15 17 -48 57 -72 87 -24 31 -49 56 -55 56 -7 0 -7 -3 1 -8 6 -4 19 -39 28 -77 9 -39 21 -88 27 -110 6 -22 14 -114 17 -205 4 -91 10 -171 14 -177 12 -18 -11 -53 -34 -53 -11 0 -23 10 -29 23 -85 207 -149 348 -184 408 -50 85 -169 219 -179 202z"/>
<path d="M4229 6445 c-240 -39 -410 -90 -629 -189 -265 -120 -545 -353 -747 -621 -117 -155 -110 -137 -118 -332 l-7 -173 28 -11 c16 -6 58 -12 94 -13 l65 -1 3 43 c2 24 -2 67 -8 95 -10 48 -9 52 14 74 30 27 67 30 88 6 37 -43 55 -182 30 -230 -39 -73 -162 -96 -299 -57 -22 6 -23 4 -23 -64 0 -62 2 -71 20 -77 14 -5 32 2 56 20 56 43 121 68 160 61 49 -10 77 -50 71 -103 -4 -41 -4 -41 32 -48 28 -5 38 -3 46 11 26 45 74 101 101 119 l29 19 -50 26 c-84 42 -117 129 -75 197 19 32 52 48 87 41 14 -3 17 -11 15 -41 -2 -23 3 -48 13 -63 14 -22 21 -24 60 -19 36 6 47 3 64 -14 29 -29 26 -48 -13 -87 l-34 -34 31 -14 c50 -21 70 -49 63 -89 -7 -39 -42 -55 -120 -55 -26 0 -53 -5 -59 -11 -8 -8 -4 -11 13 -11 13 0 145 -11 294 -25 749 -69 1653 -103 2004 -76 208 16 437 55 552 94 l95 32 6 60 c4 33 7 162 8 287 l1 227 -31 86 c-30 83 -34 89 -142 194 -272 266 -402 353 -892 599 -239 120 -381 167 -542 181 -159 14 -182 13 -354 -14z m-109 -625 c194 -11 458 -42 559 -66 79 -18 263 -82 346 -120 140 -64 258 -161 291 -239 33 -80 5 -158 -69 -194 -110 -53 -449 -48 -667 10 -107 29 -213 82 -249 126 l-30 37 -118 -22 c-349 -63 -520 -46 -607 62 -28 34 -31 45 -31 104 0 171 132 284 355 305 19 2 37 4 40 5 3 1 84 -3 180 -8z"/>
<path d="M1282 6353 c-96 -252 -124 -429 -102 -646 26 -262 94 -466 280 -837 178 -355 296 -670 381 -1012 6 -27 15 -48 19 -48 4 0 15 9 26 21 10 12 50 39 87 61 37 23 66 43 65 47 -2 3 -23 44 -47 91 -407 781 -609 1548 -561 2135 7 83 16 155 21 162 7 7 6 14 -1 18 -5 3 -13 -2 -17 -12 -4 -10 -26 -63 -49 -118 -44 -101 -61 -119 -91 -93 -13 11 -15 28 -10 106 4 51 12 102 18 113 7 13 7 25 1 31 -6 6 -13 -1 -20 -19z"/>
<path d="M1340 6304 c0 -9 5 -14 12 -12 18 6 21 28 4 28 -9 0 -16 -7 -16 -16z"/>
<path d="M7605 6170 c3 -5 8 -10 11 -10 3 0 2 5 -1 10 -3 6 -8 10 -11 10 -3 0 -2 -4 1 -10z"/>
<path d="M2871 4871 c-9 -6 -10 -11 -2 -15 13 -8 31 1 31 15 0 11 -11 11 -29 0z"/>
<path d="M2715 4837 c-2 -6 -6 -86 -9 -177 -4 -91 -9 -212 -13 -270 l-6 -105 64 61 c265 251 620 334 873 202 38 -20 92 -63 143 -114 67 -67 89 -98 127 -176 50 -101 56 -136 29 -160 -10 -9 -83 -41 -163 -72 -80 -30 -181 -71 -224 -90 -76 -33 -81 -37 -99 -82 -10 -27 -37 -118 -59 -204 -41 -157 -43 -176 -65 -536 l-4 -81 53 4 c29 2 63 6 74 8 23 5 21 -1 79 225 57 224 88 294 221 495 72 110 113 156 213 236 99 80 163 105 243 96 53 -7 125 -41 142 -69 15 -25 -5 -54 -36 -50 -23 2 -105 -55 -94 -66 3 -2 11 0 18 6 24 19 159 51 266 63 147 16 291 2 521 -50 90 -21 128 -46 117 -77 -7 -19 -85 -87 -160 -137 -80 -55 -238 -205 -358 -342 -53 -60 -188 -235 -188 -243 0 -4 33 29 72 73 156 174 423 423 556 518 37 26 112 69 167 96 l99 50 -49 21 c-86 37 -347 141 -405 161 -87 31 -90 53 -25 177 58 112 106 175 180 235 114 91 215 127 366 127 258 0 537 -151 711 -385 l63 -84 6 132 c4 73 10 219 14 324 l7 193 -59 -21 c-258 -90 -622 -126 -1148 -115 -165 4 -334 9 -375 11 -41 3 -156 10 -255 15 -283 16 -848 63 -1089 89 -53 6 -85 6 -96 -1 -13 -8 -26 -7 -51 6 -19 10 -55 20 -81 23 -46 6 -47 5 -79 -41 -27 -38 -38 -46 -65 -46 -51 0 -67 39 -40 102 6 14 -1 19 -36 28 -23 6 -53 15 -66 20 -16 7 -24 6 -27 -3z"/>
<path d="M5682 3523 c-74 -115 -220 -363 -278 -472 -20 -36 -49 -90 -66 -119 -16 -29 -27 -56 -23 -60 8 -8 40 29 92 107 53 79 200 247 290 331 42 39 120 101 172 137 53 37 100 70 105 74 7 7 -192 109 -213 109 -5 0 -40 -48 -79 -107z"/>
<path d="M3366 2422 c-3 -5 2 -50 11 -100 20 -111 33 -102 33 21 0 79 -2 87 -19 87 -11 0 -22 -4 -25 -8z"/>
<path d="M5860 1488 c-19 -32 -25 -48 -16 -48 2 0 13 18 25 40 25 48 19 53 -9 8z"/>
</g>
<g id="layer103" fill="#a3a0a1" stroke="none">
<path d="M0 11429 l0 -571 24 19 c39 31 267 220 346 288 41 36 104 84 140 108 36 24 103 71 150 105 47 34 88 62 93 62 4 0 7 -24 7 -54 l0 -55 -61 -38 c-240 -150 -298 -194 -465 -352 -49 -47 -123 -114 -162 -149 -65 -57 -72 -67 -72 -100 0 -40 13 -58 142 -204 78 -88 138 -169 166 -225 12 -23 45 -72 73 -110 130 -170 243 -382 479 -892 195 -424 265 -564 302 -607 19 -23 85 -140 148 -260 62 -121 122 -230 132 -244 41 -54 205 -212 249 -241 38 -24 194 -89 215 -89 17 0 98 202 120 300 28 126 40 160 53 160 45 0 -3 -253 -75 -397 -31 -63 -38 -85 -29 -93 6 -5 77 -21 156 -34 82 -14 206 -44 287 -71 157 -50 232 -63 391 -67 l103 -3 13 47 c20 81 64 131 295 336 136 121 236 176 445 245 232 76 357 97 580 97 295 0 508 -25 713 -85 233 -67 362 -137 568 -311 62 -52 116 -94 120 -94 5 0 39 -24 75 -54 58 -46 74 -54 130 -62 137 -19 262 -9 429 34 153 40 387 117 505 165 33 14 76 41 95 60 44 43 128 203 173 328 149 414 281 755 444 1149 63 151 139 338 170 415 30 77 138 307 240 510 180 361 263 539 277 600 4 17 23 65 43 107 34 74 35 78 19 103 -9 14 -25 25 -35 25 -29 0 -175 93 -243 155 -193 175 -452 283 -951 395 -228 51 -358 73 -368 63 -32 -33 -191 -567 -243 -818 -45 -219 -44 -218 -76 -202 -24 12 -25 17 -31 142 -4 72 -7 190 -8 263 -1 111 2 134 14 139 9 3 18 3 22 0 6 -6 10 -119 12 -311 1 -60 3 -107 5 -105 3 2 21 79 41 169 20 91 47 208 61 260 25 91 135 438 175 548 10 29 19 57 19 62 0 7 -887 10 -2450 10 l-2450 0 6 -27 c4 -16 12 -37 19 -48 7 -11 16 -44 20 -73 9 -67 101 -383 155 -532 34 -94 40 -123 35 -157 -3 -24 -10 -43 -15 -43 -4 0 -29 66 -55 148 -37 114 -48 160 -46 203 1 36 -3 62 -11 70 -31 31 -57 89 -78 169 -13 47 -24 86 -25 88 -3 4 -139 -49 -171 -67 -39 -23 -275 -124 -334 -144 -50 -16 -222 -31 -233 -20 -4 4 16 14 45 23 81 26 475 208 527 243 25 18 65 41 89 51 44 20 47 28 36 85 l-6 31 -434 0 c-360 0 -434 -2 -434 -14 0 -11 61 -339 75 -401 3 -17 -4 -24 -39 -37 l-42 -16 -37 192 c-20 105 -40 210 -43 234 l-7 42 -368 0 -369 0 0 -571z m3993 177 c78 -32 105 -97 137 -326 53 -377 128 -736 218 -1041 19 -64 19 -67 2 -82 -10 -8 -22 -23 -28 -33 -13 -23 -80 -21 -104 4 -47 49 -172 595 -243 1068 -19 124 -37 229 -40 233 -30 29 -116 -266 -169 -579 -30 -174 -40 -207 -67 -215 -31 -10 -109 6 -118 24 -10 19 -127 458 -137 514 -3 21 -10 35 -15 30 -10 -10 -62 -234 -89 -388 -22 -120 -45 -308 -55 -450 -9 -119 -10 -123 -52 -134 -46 -13 -91 -3 -108 23 -26 41 19 431 86 746 37 177 109 443 138 510 29 70 97 93 157 53 30 -19 36 -39 84 -282 22 -113 42 -207 45 -209 2 -2 7 9 11 24 29 129 68 265 95 335 58 150 153 217 252 175z m-1369 -45 c174 -86 323 -317 372 -580 39 -206 -32 -445 -174 -588 -87 -88 -163 -128 -267 -143 -44 -6 -99 -13 -121 -17 -62 -8 -149 34 -218 106 -153 161 -223 374 -214 651 4 113 9 148 32 215 67 196 178 327 324 382 24 8 66 12 119 10 67 -3 92 -9 147 -36z m3106 24 c7 -8 18 -15 25 -15 29 0 32 -25 14 -130 -21 -117 -43 -385 -34 -400 3 -6 20 -10 36 -10 33 0 89 -46 89 -73 0 -27 -56 -77 -87 -77 -15 0 -33 -4 -39 -8 -7 -4 -16 -77 -23 -182 -17 -252 -39 -449 -56 -506 -19 -64 -52 -96 -100 -96 -20 0 -45 8 -55 17 -63 57 -185 542 -295 1167 -34 193 -33 219 6 252 38 32 74 33 93 4 8 -13 31 -108 51 -213 20 -104 38 -197 40 -205 4 -11 28 -20 75 -28 39 -7 76 -12 84 -12 9 0 16 39 25 156 13 177 35 306 57 340 23 34 73 44 94 19z m-3938 -48 c21 -28 25 -40 19 -68 -4 -20 -16 -38 -29 -45 -12 -6 -102 -14 -200 -17 -97 -4 -235 -13 -307 -22 -71 -8 -169 -15 -217 -15 -48 0 -89 -4 -92 -9 -7 -11 3 -66 98 -501 41 -190 82 -387 91 -439 l18 -95 -32 -28 c-20 -18 -43 -28 -62 -28 -25 0 -33 6 -44 33 -22 54 -220 960 -230 1057 -5 43 -2 62 13 90 29 55 70 70 187 70 55 0 159 7 230 16 109 13 250 23 490 32 34 2 44 -3 67 -31z m5313 -5 c33 -24 47 -75 50 -190 2 -64 15 -214 29 -332 31 -266 43 -424 52 -651 11 -302 -4 -359 -99 -359 -25 0 -49 6 -56 13 -7 9 -11 79 -10 208 1 216 -8 343 -51 729 -39 353 -44 446 -31 496 18 68 79 113 116 86z m-891 -34 c30 -13 42 -58 31 -115 -4 -21 -4 -158 0 -306 l8 -267 90 -46 c144 -73 267 -164 344 -256 158 -188 94 -412 -153 -534 -215 -107 -468 -5 -544 220 -24 71 -25 124 -5 172 11 28 19 35 37 32 20 -3 25 -13 37 -75 7 -40 17 -73 22 -73 12 0 12 447 0 454 -19 12 -23 77 -6 102 14 22 15 57 9 312 -6 266 -6 291 11 326 11 24 30 44 49 52 39 16 40 17 70 2z m-4044 -1399 c10 -258 13 -1161 4 -1196 -7 -25 -29 -31 -37 -10 -2 6 -5 221 -6 477 -1 256 -6 575 -11 710 -5 135 -10 258 -10 275 l0 30 25 -26 c25 -25 26 -28 35 -260z m1385 -165 l18 -86 45 6 c25 3 76 6 113 6 l69 0 0 44 c0 89 40 130 84 87 20 -21 21 -31 21 -224 -1 -276 -26 -379 -99 -414 -79 -37 -144 23 -244 226 -77 154 -102 238 -102 337 0 74 16 104 55 104 19 0 24 -10 40 -86z m1000 -20 l18 -86 36 6 c20 3 71 6 114 6 l77 0 0 44 c0 89 40 130 84 87 20 -21 21 -30 20 -224 0 -272 -24 -376 -95 -412 -77 -40 -150 26 -244 219 -83 171 -97 213 -103 319 -5 96 8 127 53 127 19 0 24 -10 40 -86z m-461 40 c3 -9 6 -30 6 -47 0 -82 42 -157 87 -157 31 0 43 33 43 114 0 46 4 67 16 77 37 30 57 -60 34 -156 -10 -46 -59 -95 -93 -95 -33 0 -81 34 -107 75 -28 45 -40 165 -20 190 16 19 26 19 34 -1z m1000 -20 c3 -9 6 -30 6 -47 0 -81 42 -157 85 -157 31 0 45 38 45 119 0 56 3 70 17 75 38 15 55 -65 33 -159 -10 -46 -59 -95 -93 -95 -33 0 -81 34 -107 75 -28 45 -40 165 -20 190 16 19 26 19 34 -1z m1280 -339 c4 -159 9 -326 11 -370 2 -44 7 -168 10 -275 3 -107 9 -205 11 -216 6 -24 -14 -43 -26 -24 -4 6 -10 47 -14 89 -11 134 -36 779 -36 938 0 141 1 152 18 150 18 -1 19 -19 26 -292z m222 -1363 c6 -4 39 -50 74 -102 34 -52 72 -105 82 -117 22 -23 17 -63 -7 -63 -20 0 -65 59 -118 153 -60 108 -72 157 -31 129z"/>
<path d="M5436 10921 c-6 -9 83 -413 93 -424 4 -4 7 8 8 25 0 18 6 109 13 201 6 93 9 171 6 174 -10 10 -116 31 -120 24z"/>
<path d="M6247 10458 c-6 -185 -21 -255 -64 -286 l-27 -19 40 -26 c55 -37 131 -51 194 -38 64 14 101 33 151 78 116 105 90 195 -101 345 -54 43 -160 108 -176 108 -8 0 -13 -52 -17 -162z m121 -137 c2 -181 1 -191 -16 -191 -17 0 -20 12 -25 122 -4 66 -7 159 -7 206 l0 84 23 -14 c21 -15 22 -21 25 -207z"/>
<path d="M6681 11959 c-7 -23 -10 -43 -8 -45 2 -3 44 -9 92 -15 144 -16 561 -114 719 -168 64 -23 76 -21 76 13 0 12 14 71 30 129 17 59 30 112 30 117 0 6 -164 10 -463 10 l-464 0 -12 -41z"/>
<path d="M7735 11943 c-26 -94 -67 -216 -81 -244 -12 -25 -12 -25 84 -73 114 -57 195 -112 283 -195 80 -75 187 -152 261 -188 31 -16 59 -34 62 -41 3 -7 -17 -59 -44 -115 -27 -56 -61 -136 -76 -177 -14 -41 -96 -217 -182 -390 -218 -443 -248 -509 -297 -650 -43 -124 -153 -419 -365 -980 -61 -162 -127 -340 -147 -395 -51 -142 -106 -265 -166 -374 -46 -83 -62 -102 -147 -173 -65 -55 -126 -95 -195 -129 -172 -83 -582 -189 -731 -189 -61 0 -175 28 -226 54 -45 23 -48 24 -48 6 0 -26 -76 -88 -125 -101 -22 -6 -57 -15 -77 -21 -50 -15 -124 -5 -159 21 -18 14 -37 20 -49 16 -28 -9 -167 -166 -185 -208 l-15 -37 75 -71 c87 -83 148 -170 210 -301 l44 -93 0 45 c1 70 -27 227 -56 318 -24 76 -25 84 -11 99 12 11 25 14 44 9 39 -10 149 -125 213 -224 30 -45 55 -81 57 -79 2 1 -2 45 -8 95 -9 71 -9 97 0 112 9 15 5 33 -28 105 -22 47 -40 92 -40 100 0 20 129 20 220 1 74 -16 254 -107 422 -213 106 -67 361 -259 448 -338 83 -75 87 -75 50 -8 -19 34 -65 101 -102 149 -58 73 -66 88 -57 106 6 11 17 17 25 14 8 -3 74 -46 148 -96 211 -143 292 -234 372 -417 35 -81 49 -102 40 -63 -2 14 -8 61 -11 105 -12 165 -59 341 -98 374 -10 7 -17 24 -17 38 0 24 1 24 83 23 45 -1 89 1 99 5 35 14 100 -38 137 -112 41 -81 54 -175 56 -380 l2 -192 43 -60 c24 -32 62 -94 84 -137 23 -43 42 -70 44 -61 5 24 -25 176 -48 241 -21 62 -18 86 10 86 13 0 25 -16 39 -55 12 -31 21 -58 21 -60 0 -3 31 -35 69 -72 164 -163 238 -461 200 -811 -26 -245 -93 -436 -304 -877 -215 -448 -275 -598 -386 -970 -33 -110 -86 -285 -119 -390 -58 -185 -61 -199 -100 -510 -22 -176 -49 -365 -60 -420 -10 -55 -24 -134 -30 -175 -22 -152 -87 -368 -150 -498 -102 -210 -236 -404 -345 -498 -31 -27 -89 -78 -129 -113 -39 -35 -107 -88 -152 -117 -97 -64 -288 -165 -364 -193 -140 -51 -356 -111 -469 -130 -167 -28 -235 -27 -621 8 -63 5 -191 15 -285 22 -93 6 -235 20 -315 30 -80 11 -192 24 -250 29 -58 6 -139 17 -180 25 -41 8 -115 19 -165 25 -297 34 -654 202 -886 417 -191 176 -318 328 -422 505 -146 249 -195 341 -295 563 -100 222 -129 327 -163 595 -37 298 -18 546 57 748 l35 92 -51 171 c-93 311 -189 544 -399 968 -143 290 -221 503 -259 706 -12 65 -16 145 -16 290 0 184 3 208 27 297 57 212 164 367 272 394 29 7 29 10 10 -89 -24 -125 -19 -130 35 -33 28 50 56 97 64 105 7 9 25 52 40 96 66 200 217 394 331 427 22 6 47 17 56 25 20 16 49 17 49 1 0 -7 -12 -67 -25 -133 -14 -66 -25 -132 -25 -146 l0 -27 37 19 c21 10 51 19 68 19 27 0 42 13 109 90 153 177 310 292 461 335 69 21 194 15 232 -10 21 -14 32 -14 104 0 106 20 142 19 162 -3 25 -27 21 -42 -23 -101 -26 -35 -48 -80 -64 -134 -27 -92 -40 -157 -31 -157 3 0 28 22 55 48 27 26 61 54 77 62 15 8 50 30 76 49 104 73 216 101 252 61 17 -19 17 -22 2 -62 -9 -23 -15 -43 -13 -45 1 -2 29 13 62 32 57 34 111 55 147 55 15 0 17 11 17 97 0 123 -15 156 -119 262 -88 90 -113 102 -144 73 -20 -19 -32 -20 -117 -17 -172 8 -259 33 -310 92 -29 33 -35 35 -73 30 -69 -10 -284 11 -402 39 -60 14 -187 43 -281 64 -171 39 -235 59 -264 84 -8 7 -49 23 -90 36 -121 36 -185 75 -304 190 -127 122 -203 231 -345 495 -112 207 -345 677 -434 875 -186 414 -330 665 -527 920 -45 58 -96 128 -115 155 -18 28 -49 66 -69 84 l-36 35 0 -5267 0 -5267 4245 0 4245 0 0 6000 0 6000 -370 0 -369 0 -16 -57z m35 -2578 c0 -47 -86 -224 -134 -275 -48 -51 -48 -52 -65 -168 -6 -39 -18 -90 -27 -112 -26 -65 -108 -120 -137 -91 -8 8 0 22 35 54 39 36 47 50 58 102 26 133 41 168 92 223 45 47 89 128 142 255 17 42 36 49 36 12z m-7066 -120 c17 -33 48 -84 69 -112 33 -46 50 -103 29 -103 -5 0 -19 19 -32 43 -13 23 -39 59 -57 80 -34 38 -73 115 -73 144 0 33 35 4 64 -52z m189 -448 c-9 -16 -26 12 -18 30 7 17 8 17 15 -2 4 -11 5 -24 3 -28z m111 -97 c5 -5 6 -16 2 -25 -6 -16 -9 -16 -29 -2 -12 8 -24 22 -25 32 -3 14 1 16 20 10 12 -4 27 -11 32 -15z m197 -4002 c17 -35 51 -88 74 -119 24 -31 47 -69 51 -85 4 -16 22 -54 40 -84 18 -30 37 -73 43 -95 6 -22 29 -67 51 -100 41 -61 49 -85 29 -85 -29 0 -94 95 -125 184 -8 22 -27 61 -43 86 -16 25 -32 58 -36 75 -3 16 -22 48 -40 71 -53 64 -108 170 -100 194 10 33 23 23 56 -42z m5728 -2980 c-43 -140 -52 -158 -76 -158 -18 0 -19 -3 41 194 52 170 69 202 74 138 2 -27 -11 -86 -39 -174z m-179 -457 c0 -5 -14 -14 -31 -22 -54 -22 -89 -59 -129 -138 -52 -104 -112 -179 -163 -202 -50 -22 -77 -24 -102 -5 -16 12 -17 16 -6 30 7 9 28 16 46 16 48 0 80 32 167 162 42 62 84 120 94 129 34 29 124 51 124 30z"/>
<path d="M5690 7431 c0 -5 18 -35 39 -67 92 -138 251 -503 360 -829 34 -99 61 -173 61 -164 0 9 -7 85 -16 170 -19 188 -31 409 -22 409 9 0 44 -111 57 -180 70 -364 120 -1122 107 -1640 -3 -135 -14 -453 -23 -707 l-16 -462 21 -98 c39 -173 25 -381 -26 -423 -18 -14 -21 -38 -31 -290 -6 -151 -11 -333 -12 -405 0 -151 -7 -215 -43 -424 -15 -84 -25 -158 -23 -164 6 -18 74 51 124 126 72 107 96 123 137 92 11 -8 26 -15 35 -15 8 0 22 -7 32 -16 17 -15 17 -20 4 -50 -22 -53 -99 -155 -159 -213 -62 -57 -124 -90 -173 -91 -36 0 -29 16 -73 -170 -33 -139 -75 -263 -125 -367 -44 -90 -46 -93 -91 -106 -36 -10 -50 -21 -68 -53 -21 -37 -24 -39 -66 -36 -50 3 -90 33 -90 66 0 12 34 89 77 173 42 84 74 155 70 159 -10 10 -96 -11 -149 -36 -24 -11 -58 -24 -76 -29 -28 -8 -34 -6 -56 20 -13 15 -30 45 -36 64 -16 47 -6 58 93 106 77 37 81 38 180 35 145 -3 198 -33 217 -121 6 -27 9 -24 29 45 13 41 33 119 46 175 l22 100 -27 32 c-32 36 -55 121 -48 177 3 30 1 35 -11 30 -9 -4 -38 -14 -64 -23 -43 -14 -47 -18 -42 -41 3 -14 8 -56 11 -95 5 -62 3 -74 -18 -104 -32 -48 -71 -68 -155 -81 -148 -23 -298 20 -402 116 -52 48 -54 52 -47 87 4 21 20 52 35 70 l29 31 55 -51 c73 -66 163 -103 251 -103 36 0 71 3 80 6 20 8 20 34 2 78 l-14 33 -113 5 c-103 4 -121 7 -187 38 -83 38 -164 116 -200 194 -12 25 -24 46 -27 46 -2 0 -32 -46 -65 -102 -36 -61 -90 -179 -133 -287 -75 -191 -99 -228 -132 -201 -8 7 -15 23 -15 35 0 42 59 248 105 370 119 314 550 1125 727 1369 15 21 28 43 28 47 0 13 -197 109 -223 109 -33 0 -150 -41 -227 -80 -315 -159 -749 -601 -991 -1007 -37 -64 -71 -124 -74 -134 -11 -34 -65 -36 -65 -3 0 27 89 225 156 349 170 312 354 537 667 814 88 79 125 116 115 121 -35 19 -246 52 -358 57 -164 7 -301 -14 -419 -63 -112 -46 -124 -49 -141 -29 -18 22 4 61 77 136 29 30 50 58 47 62 -4 4 -24 7 -44 7 -122 0 -261 -117 -348 -293 -94 -190 -221 -541 -237 -655 -5 -36 -5 -37 47 -62 71 -34 103 -89 102 -177 -1 -93 -45 -177 -149 -279 l-82 -82 -11 -343 c-13 -363 -18 -412 -44 -417 -18 -4 -38 44 -38 92 0 38 -99 558 -109 568 -3 4 -35 0 -71 -9 -99 -23 -222 -14 -294 21 -79 39 -111 88 -110 170 0 78 26 129 108 214 56 59 239 192 283 206 17 5 19 19 19 153 1 178 42 434 98 608 19 60 34 111 32 112 -2 2 -59 -25 -127 -61 -192 -100 -360 -242 -449 -381 -44 -67 -61 -76 -95 -51 -19 13 -18 16 18 90 20 42 37 78 37 81 0 3 -17 -3 -37 -14 -67 -33 -185 -72 -204 -66 -10 3 -20 14 -23 23 -17 60 -36 154 -38 192 l-3 45 -57 -75 c-69 -92 -116 -180 -154 -289 -23 -65 -34 -83 -52 -88 -13 -3 -27 -2 -32 3 -5 5 -3 61 5 129 7 66 16 151 20 189 7 78 67 313 94 369 10 20 17 37 15 37 -15 0 -139 -63 -167 -84 -19 -14 -40 -26 -47 -26 -25 0 -175 -167 -219 -244 -76 -134 -107 -313 -98 -570 9 -245 59 -450 199 -801 145 -364 485 -860 702 -1024 146 -110 201 -141 391 -223 207 -89 328 -123 488 -138 61 -6 207 -26 322 -45 219 -36 656 -81 930 -95 88 -5 192 -12 231 -16 92 -9 249 10 391 47 110 28 320 102 385 135 50 25 226 143 283 189 27 22 66 51 85 65 54 37 236 217 301 297 38 48 83 125 133 228 41 86 91 180 111 209 41 62 107 249 135 381 24 117 55 324 75 500 36 316 73 518 125 680 15 50 38 129 49 177 30 129 114 416 160 548 45 132 139 347 234 535 151 303 227 498 268 691 20 93 24 138 24 304 0 169 -3 207 -22 282 -23 90 -82 252 -89 245 -2 -2 1 -52 7 -110 12 -116 6 -141 -34 -135 -16 2 -32 28 -63 100 -23 54 -68 137 -100 185 l-58 88 -8 -40 c-4 -22 -19 -105 -33 -185 -14 -80 -64 -314 -111 -520 -128 -559 -150 -662 -173 -815 -12 -77 -53 -282 -91 -455 -91 -416 -119 -563 -131 -690 -11 -105 -24 -204 -79 -570 -17 -107 -46 -319 -65 -470 -30 -233 -77 -521 -100 -612 -4 -16 1 -33 15 -51 28 -35 21 -64 -24 -111 -18 -20 -48 -65 -67 -101 -39 -77 -115 -175 -135 -175 -30 0 -24 31 25 116 27 49 53 101 56 115 7 27 6 27 -78 39 -153 21 -161 15 -171 -137 -3 -50 -9 -98 -12 -107 -7 -19 -32 -27 -84 -28 -66 -1 -73 11 -65 121 13 191 40 263 113 299 67 34 146 36 328 7 l41 -7 11 68 c54 310 134 891 163 1169 21 208 43 355 90 600 38 202 120 580 152 705 14 52 29 149 36 215 18 199 65 454 206 1120 117 553 139 895 70 1113 -14 44 -31 84 -38 90 -7 6 -36 14 -64 18 l-52 6 25 -60 c42 -105 65 -272 71 -527 6 -244 2 -275 -37 -275 -22 0 -23 1 -45 149 -33 224 -126 418 -259 538 -56 51 -146 118 -146 109 0 -3 14 -28 30 -55 59 -95 102 -232 78 -247 -5 -4 -40 23 -77 58 -310 302 -799 619 -998 648 -85 12 -93 12 -93 1z"/>
<path d="M5097 7273 c-4 -6 -9 -132 -12 -280 -6 -265 -6 -270 23 -413 l28 -145 90 -48 c159 -87 336 -196 469 -289 121 -85 304 -223 350 -265 11 -10 46 -40 78 -67 l58 -49 -6 94 c-16 238 -85 502 -240 919 -48 130 -159 396 -171 409 -2 2 -1 -39 2 -91 3 -66 0 -111 -11 -153 -20 -79 -31 -88 -50 -39 -38 93 -115 242 -142 271 -15 17 -46 54 -68 82 -21 28 -41 49 -42 47 -4 -3 18 -104 39 -181 6 -22 14 -114 17 -205 4 -91 10 -171 14 -177 12 -18 -11 -53 -34 -53 -11 0 -23 10 -29 23 -85 207 -149 348 -184 408 -50 85 -169 219 -179 202z"/>
<path d="M4229 6445 c-240 -39 -410 -90 -629 -189 -265 -120 -545 -353 -747 -621 -117 -155 -110 -137 -118 -332 l-7 -173 28 -11 c16 -6 58 -12 94 -13 l65 -1 3 43 c2 24 -2 67 -8 95 -10 48 -9 52 14 74 30 27 67 30 88 6 37 -43 55 -182 30 -230 -39 -73 -162 -96 -299 -57 -22 6 -23 4 -23 -64 0 -62 2 -71 20 -77 14 -5 32 2 56 20 56 43 121 68 160 61 49 -10 77 -50 71 -103 -4 -41 -4 -41 32 -48 28 -5 38 -3 46 11 26 45 74 101 101 119 l29 19 -50 26 c-84 42 -117 129 -75 197 19 32 52 48 87 41 14 -3 17 -11 15 -41 -2 -23 3 -48 13 -63 14 -22 21 -24 60 -19 36 6 47 3 64 -14 29 -29 26 -48 -13 -87 l-34 -34 31 -14 c50 -21 70 -49 63 -89 -7 -38 -43 -56 -114 -55 -24 0 -48 -4 -55 -11 -8 -8 -6 -11 8 -11 10 0 140 -11 289 -25 749 -69 1653 -103 2004 -76 208 16 437 55 552 94 l95 32 6 60 c4 33 7 162 8 287 l1 227 -31 86 c-30 83 -34 89 -142 194 -272 266 -402 353 -892 599 -239 120 -381 167 -542 181 -159 14 -182 13 -354 -14z m-109 -625 c194 -11 458 -42 559 -66 79 -18 263 -82 346 -120 140 -64 258 -161 291 -239 33 -80 5 -158 -69 -194 -110 -53 -449 -48 -667 10 -107 29 -213 82 -249 126 l-30 37 -118 -22 c-349 -63 -520 -46 -607 62 -28 34 -31 45 -31 104 0 171 132 284 355 305 19 2 37 4 40 5 3 1 84 -3 180 -8z"/>
<path d="M1272 6319 c-81 -191 -113 -397 -93 -607 26 -264 94 -468 281 -842 178 -355 296 -670 381 -1012 6 -27 15 -48 19 -48 4 0 15 9 26 21 10 12 50 39 87 61 37 23 66 43 65 47 -2 3 -23 44 -47 91 -407 781 -607 1542 -561 2134 7 86 10 159 8 162 -3 2 -26 -44 -51 -103 -46 -108 -63 -127 -92 -103 -17 14 -19 89 -6 180 5 30 7 57 5 59 -2 2 -12 -16 -22 -40z"/>
<path d="M2873 4863 c4 -3 10 -3 14 0 3 4 0 7 -7 7 -7 0 -10 -3 -7 -7z"/>
<path d="M2715 4837 c-2 -6 -6 -86 -9 -177 -4 -91 -9 -212 -13 -270 l-6 -105 64 61 c265 251 620 334 873 202 38 -20 92 -63 143 -114 67 -67 89 -98 127 -176 50 -101 56 -136 29 -160 -10 -9 -83 -41 -163 -72 -80 -30 -181 -71 -224 -90 -76 -33 -81 -37 -99 -82 -10 -27 -37 -118 -59 -204 -41 -157 -43 -176 -65 -536 l-4 -81 53 4 c29 2 63 6 74 8 23 5 21 -1 79 225 57 224 88 294 221 495 72 110 113 156 213 236 99 80 163 105 243 96 53 -7 125 -41 142 -69 15 -25 -5 -54 -34 -50 -20 2 -97 -44 -88 -53 2 -2 40 7 85 20 164 48 342 54 543 19 232 -40 301 -66 286 -110 -4 -11 -64 -64 -134 -119 -157 -124 -371 -336 -478 -475 -106 -138 -112 -153 -23 -55 153 167 288 301 403 397 138 116 196 155 326 220 l94 47 -49 21 c-86 37 -347 141 -405 161 -87 31 -90 53 -25 177 58 112 106 175 180 235 114 91 215 127 366 127 258 0 537 -151 711 -385 l63 -84 6 132 c4 73 10 219 14 324 l7 193 -59 -21 c-258 -90 -622 -126 -1148 -115 -165 4 -334 9 -375 11 -41 3 -156 10 -255 15 -283 16 -848 63 -1089 89 -53 6 -85 6 -96 -1 -13 -8 -26 -7 -51 6 -19 10 -55 20 -81 23 -46 6 -47 5 -79 -41 -27 -38 -38 -46 -65 -46 -51 0 -67 39 -40 102 6 14 -1 19 -36 28 -23 6 -53 15 -66 20 -16 7 -24 6 -27 -3z"/>
<path d="M5682 3523 c-123 -190 -370 -629 -359 -639 2 -2 32 33 67 78 173 226 325 379 479 485 53 37 100 70 105 74 7 7 -192 109 -213 109 -5 0 -40 -48 -79 -107z"/>
<path d="M3376 2412 c-2 -4 1 -33 9 -63 l13 -54 1 63 c1 55 -8 77 -23 54z"/>
</g>
<g id="layer104" fill="#c7c6c6" stroke="none">
<path d="M0 11429 l0 -571 24 19 c39 31 267 220 346 288 41 36 104 84 140 108 36 24 103 71 150 105 47 34 88 62 93 62 4 0 7 -24 7 -54 l0 -55 -61 -38 c-240 -150 -298 -194 -465 -352 -49 -47 -123 -114 -162 -149 -65 -57 -72 -67 -72 -100 0 -40 13 -58 142 -204 78 -88 138 -169 166 -225 12 -23 45 -72 73 -110 130 -170 243 -382 479 -892 195 -424 265 -564 302 -607 19 -23 85 -140 148 -260 62 -121 122 -230 132 -244 41 -54 205 -212 249 -241 38 -24 194 -89 215 -89 14 0 96 197 114 276 11 49 26 109 32 134 7 25 12 52 13 60 0 8 7 15 15 15 12 0 15 -14 13 -78 -3 -106 -39 -244 -89 -344 -31 -62 -38 -85 -29 -93 6 -5 77 -21 156 -34 82 -14 206 -44 287 -71 157 -50 232 -63 391 -67 l103 -3 13 47 c20 81 64 131 295 336 136 121 236 176 445 245 232 76 357 97 580 97 295 0 508 -25 713 -85 233 -67 362 -137 568 -311 62 -52 116 -94 120 -94 5 0 39 -24 75 -54 58 -46 74 -54 130 -62 137 -19 262 -9 429 34 153 40 387 117 505 165 33 14 76 41 95 60 44 43 128 203 173 328 149 414 281 755 444 1149 63 151 139 338 170 415 30 77 138 307 240 510 180 361 263 539 277 600 4 17 23 65 43 107 34 74 35 78 19 103 -9 14 -25 25 -35 25 -29 0 -175 93 -243 155 -193 175 -452 283 -951 395 -213 47 -354 73 -367 65 -10 -6 -40 -92 -45 -132 -2 -15 -20 -75 -40 -133 -52 -154 -91 -289 -120 -425 -14 -66 -30 -127 -34 -136 -12 -21 -34 -128 -33 -162 0 -15 -3 -25 -8 -22 -5 3 -10 -1 -12 -10 -2 -12 -7 -13 -28 -2 -24 12 -25 17 -31 142 -4 72 -7 194 -8 273 l-1 142 25 0 25 0 1 -112 c0 -62 0 -160 0 -218 0 -115 9 -112 28 10 7 41 17 102 23 135 15 82 141 500 167 552 12 23 21 46 21 52 0 5 14 49 30 98 16 48 30 91 30 95 0 5 -1101 7 -2447 6 l-2448 -3 3 -25 c2 -14 9 -34 17 -45 7 -11 16 -44 20 -73 4 -29 29 -121 56 -204 27 -83 49 -155 49 -160 0 -5 16 -49 36 -100 19 -50 37 -104 39 -119 2 -16 6 -38 10 -49 7 -23 -3 -100 -13 -100 -9 0 -59 123 -88 215 -17 54 -21 85 -17 131 4 43 2 64 -8 75 -28 29 -68 95 -72 119 -11 55 -30 140 -32 140 -11 0 -147 -55 -171 -69 -39 -23 -275 -124 -334 -144 -50 -16 -222 -31 -233 -20 -4 4 16 14 45 23 81 26 475 208 527 243 25 18 65 41 89 51 45 20 52 39 32 90 l-10 26 -430 0 c-357 0 -430 -2 -430 -14 0 -11 61 -339 75 -401 3 -17 -4 -24 -39 -37 l-42 -16 -37 192 c-20 105 -40 210 -43 234 l-7 42 -368 0 -369 0 0 -571z m3993 177 c78 -32 105 -97 137 -326 53 -377 128 -736 218 -1041 19 -64 19 -67 2 -82 -10 -8 -22 -23 -28 -33 -13 -23 -80 -21 -104 4 -47 49 -172 595 -243 1068 -19 124 -37 229 -40 233 -30 29 -116 -266 -169 -579 -30 -174 -40 -207 -67 -215 -31 -10 -109 6 -118 24 -10 19 -127 458 -137 514 -3 21 -10 35 -15 30 -10 -10 -62 -234 -89 -388 -22 -120 -45 -308 -55 -450 -9 -119 -10 -123 -52 -134 -46 -13 -91 -3 -108 23 -26 41 19 431 86 746 37 177 109 443 138 510 29 70 97 93 157 53 30 -19 36 -39 84 -282 22 -113 42 -207 45 -209 2 -2 7 9 11 24 29 129 68 265 95 335 58 150 153 217 252 175z m-1369 -45 c174 -86 323 -317 372 -580 39 -206 -32 -445 -174 -588 -87 -88 -163 -128 -267 -143 -44 -6 -99 -13 -121 -17 -62 -8 -149 34 -218 106 -153 161 -223 374 -214 651 4 113 9 148 32 215 67 196 178 327 324 382 24 8 66 12 119 10 67 -3 92 -9 147 -36z m3106 24 c7 -8 18 -15 25 -15 29 0 32 -25 14 -130 -21 -117 -43 -385 -34 -400 3 -6 20 -10 36 -10 33 0 89 -46 89 -73 0 -27 -56 -77 -87 -77 -15 0 -33 -4 -39 -8 -7 -4 -16 -77 -23 -182 -17 -252 -39 -449 -56 -506 -19 -64 -52 -96 -100 -96 -20 0 -45 8 -55 17 -63 57 -185 542 -295 1167 -34 193 -33 219 6 252 38 32 74 33 93 4 8 -13 31 -108 51 -213 20 -104 38 -197 40 -205 4 -11 28 -20 75 -28 39 -7 76 -12 84 -12 9 0 16 39 25 156 13 177 35 306 57 340 23 34 73 44 94 19z m-3938 -48 c21 -28 25 -40 19 -68 -4 -20 -16 -38 -29 -45 -12 -6 -102 -14 -200 -17 -97 -4 -235 -13 -307 -22 -71 -8 -169 -15 -217 -15 -48 0 -89 -4 -92 -9 -7 -11 3 -66 98 -501 41 -190 82 -387 91 -439 l18 -95 -32 -28 c-20 -18 -43 -28 -62 -28 -25 0 -33 6 -44 33 -22 54 -220 960 -230 1057 -5 43 -2 62 13 90 29 55 70 70 187 70 55 0 159 7 230 16 109 13 250 23 490 32 34 2 44 -3 67 -31z m5313 -5 c33 -24 47 -75 50 -190 2 -64 15 -214 29 -332 31 -266 43 -424 52 -651 11 -302 -4 -359 -99 -359 -25 0 -49 6 -56 13 -7 9 -11 79 -10 208 1 216 -8 343 -51 729 -39 353 -44 446 -31 496 18 68 79 113 116 86z m-891 -34 c30 -13 42 -58 31 -115 -4 -21 -4 -158 0 -306 l8 -267 90 -46 c144 -73 267 -164 344 -256 158 -188 94 -412 -153 -534 -215 -107 -468 -5 -544 220 -24 71 -25 124 -5 172 11 28 19 35 37 32 22 -3 23 -5 44 -105 2 -13 9 -23 14 -23 13 0 14 427 1 434 -19 12 -23 77 -6 102 14 22 15 57 9 312 -6 266 -6 291 11 326 11 24 30 44 49 52 39 16 40 17 70 2z m-4043 -1414 c6 -137 11 -256 11 -264 1 -693 -4 -959 -17 -970 -8 -6 -18 -9 -23 -6 -6 4 -10 194 -11 471 -1 450 -4 583 -17 915 l-6 155 26 -26 27 -25 10 -250z m1384 -150 l18 -86 45 6 c25 3 76 6 113 6 l69 0 0 44 c0 89 40 130 84 87 20 -21 21 -31 21 -224 -1 -276 -26 -379 -99 -414 -79 -37 -144 23 -244 226 -77 154 -102 238 -102 337 0 74 16 104 55 104 19 0 24 -10 40 -86z m1000 -20 l18 -86 36 6 c20 3 71 6 114 6 l77 0 0 44 c0 89 40 130 84 87 20 -21 21 -30 20 -224 0 -272 -24 -376 -95 -412 -77 -40 -150 26 -244 219 -83 171 -97 213 -103 319 -5 96 8 127 53 127 19 0 24 -10 40 -86z m-461 40 c3 -9 6 -30 6 -47 0 -82 42 -157 87 -157 31 0 43 33 43 114 0 46 4 67 16 77 37 30 57 -60 34 -156 -10 -46 -59 -95 -93 -95 -33 0 -81 34 -107 75 -28 45 -40 165 -20 190 16 19 26 19 34 -1z m1000 -20 c3 -9 6 -30 6 -47 0 -81 42 -157 85 -157 31 0 45 38 45 119 0 56 3 70 17 75 38 15 55 -65 33 -159 -10 -46 -59 -95 -93 -95 -33 0 -81 34 -107 75 -28 45 -40 165 -20 190 16 19 26 19 34 -1z m1281 -131 c7 -74 11 -298 14 -682 1 -74 5 -139 10 -145 12 -15 22 -278 12 -295 -14 -22 -37 -6 -45 31 -4 18 -9 107 -12 198 -2 91 -9 282 -14 425 -6 143 -10 326 -10 407 0 139 1 147 19 145 17 -1 20 -12 26 -84z m213 -1540 c11 -10 56 -75 101 -146 59 -92 80 -133 76 -147 -4 -11 -12 -20 -19 -20 -42 0 -196 248 -196 316 0 19 14 18 38 -3z"/>
<path d="M2425 11431 c-83 -21 -149 -84 -201 -195 -50 -106 -67 -198 -61 -331 10 -191 66 -340 169 -450 68 -73 77 -76 186 -50 114 27 205 101 262 215 86 170 77 349 -25 557 -88 179 -221 281 -330 254z"/>
<path d="M6247 10458 c-6 -185 -21 -255 -64 -286 l-27 -19 40 -26 c55 -37 131 -51 194 -38 64 14 101 33 151 78 116 105 90 195 -101 345 -54 43 -160 108 -176 108 -8 0 -13 -52 -17 -162z m118 49 c2 -7 5 -94 7 -195 3 -179 3 -182 -18 -182 -20 0 -21 7 -27 122 -4 66 -7 159 -7 205 0 81 1 83 21 73 11 -6 22 -17 24 -23z"/>
<path d="M3678 9733 c-32 -2 -58 -8 -58 -14 0 -12 75 -162 106 -211 14 -21 29 -36 33 -33 10 5 26 97 36 203 l6 62 -33 -2 c-18 -1 -59 -3 -90 -5z"/>
<path d="M4745 9719 c-22 -4 -59 -8 -82 -8 -24 -1 -43 -6 -43 -11 0 -31 127 -253 140 -245 16 10 47 260 33 267 -4 3 -26 1 -48 -3z"/>
<path d="M7735 11943 c-26 -94 -67 -216 -81 -244 -12 -25 -12 -25 84 -73 114 -57 195 -112 283 -195 80 -75 187 -152 261 -188 31 -16 59 -34 62 -41 3 -7 -17 -59 -44 -115 -27 -56 -61 -136 -76 -177 -14 -41 -96 -217 -182 -390 -218 -443 -248 -509 -297 -650 -43 -124 -153 -419 -365 -980 -61 -162 -127 -340 -147 -395 -51 -142 -106 -265 -166 -374 -46 -83 -62 -102 -147 -173 -65 -55 -126 -95 -195 -129 -172 -83 -582 -189 -731 -189 -61 0 -175 28 -226 54 -45 23 -48 24 -48 6 0 -26 -76 -88 -125 -101 -22 -6 -57 -15 -77 -21 -50 -15 -124 -5 -159 21 -18 14 -37 20 -49 16 -28 -9 -167 -166 -185 -208 l-15 -37 75 -71 c87 -83 148 -170 210 -301 l44 -93 0 45 c1 70 -27 227 -56 318 -24 76 -25 84 -11 99 12 11 25 14 44 9 39 -10 149 -125 213 -224 30 -45 55 -81 57 -79 2 1 -2 45 -8 95 -9 71 -9 97 0 112 9 15 5 33 -28 105 -22 47 -40 92 -40 100 0 12 16 15 78 15 98 0 202 -22 257 -55 24 -14 49 -25 56 -25 16 0 266 -141 334 -189 62 -43 227 -173 275 -217 71 -64 135 -120 154 -134 34 -26 -41 101 -116 196 -57 72 -66 89 -58 105 6 10 14 19 18 19 14 0 217 -139 295 -202 43 -34 96 -86 118 -115 41 -53 116 -191 137 -252 7 -19 14 -32 16 -30 6 7 -14 191 -29 275 -22 117 -42 179 -70 212 -14 17 -25 40 -25 52 0 20 4 21 83 20 45 -1 89 1 99 5 35 14 100 -38 137 -112 41 -81 54 -175 56 -380 l2 -192 43 -60 c24 -32 62 -94 84 -137 23 -43 42 -70 44 -61 5 24 -25 176 -48 241 -21 62 -18 86 10 86 13 0 25 -16 39 -55 12 -31 21 -58 21 -60 0 -3 31 -35 69 -72 164 -163 238 -461 200 -811 -26 -245 -93 -436 -304 -877 -215 -448 -275 -598 -386 -970 -33 -110 -86 -285 -119 -390 -58 -185 -61 -199 -100 -510 -22 -176 -49 -365 -60 -420 -10 -55 -24 -134 -30 -175 -22 -152 -87 -368 -150 -498 -102 -210 -236 -404 -345 -498 -31 -27 -89 -78 -129 -113 -39 -35 -107 -88 -152 -117 -97 -64 -288 -165 -364 -193 -140 -51 -356 -111 -469 -130 -167 -28 -235 -27 -621 8 -63 5 -191 15 -285 22 -93 6 -235 20 -315 30 -80 11 -192 24 -250 29 -58 6 -139 17 -180 25 -41 8 -115 19 -165 25 -297 34 -654 202 -886 417 -191 176 -318 328 -422 505 -146 249 -195 341 -295 563 -100 222 -129 327 -163 595 -37 298 -18 546 57 748 l35 92 -51 171 c-93 311 -189 544 -399 968 -143 290 -221 503 -259 706 -12 65 -16 145 -16 290 0 184 3 208 27 297 57 212 164 367 272 394 29 7 29 10 10 -89 -24 -125 -19 -130 35 -33 28 50 56 97 64 105 7 9 25 52 40 96 66 200 217 394 331 427 22 6 47 17 56 25 20 16 49 17 49 1 0 -7 -12 -67 -25 -133 -14 -66 -25 -132 -25 -146 l0 -27 37 19 c21 10 51 19 68 19 27 0 42 13 109 90 153 177 310 292 461 335 69 21 194 15 232 -10 21 -14 32 -14 104 0 106 20 142 19 162 -3 25 -27 21 -42 -23 -101 -26 -35 -48 -80 -64 -134 -27 -92 -40 -157 -31 -157 3 0 28 22 55 48 27 26 61 54 77 62 15 8 50 30 76 49 104 73 216 101 252 61 17 -19 17 -22 2 -62 -9 -23 -15 -43 -13 -45 1 -2 29 13 62 32 57 34 111 55 147 55 15 0 17 11 17 97 0 123 -15 156 -119 262 -88 90 -113 102 -144 73 -20 -19 -32 -20 -117 -17 -172 8 -259 33 -310 92 -29 33 -35 35 -73 30 -69 -10 -284 11 -402 39 -60 14 -187 43 -281 64 -171 39 -235 59 -264 84 -8 7 -49 23 -90 36 -121 36 -185 75 -304 190 -127 122 -203 231 -345 495 -112 207 -345 677 -434 875 -186 414 -330 665 -527 920 -45 58 -96 128 -115 155 -18 28 -49 66 -69 84 l-36 35 0 -5267 0 -5267 4245 0 4245 0 0 6000 0 6000 -370 0 -369 0 -16 -57z m48 -2535 c7 -26 -31 -145 -73 -228 -16 -33 -51 -79 -76 -103 -45 -43 -47 -47 -60 -134 -7 -50 -20 -109 -30 -132 -26 -66 -108 -121 -137 -92 -8 8 0 22 35 54 30 28 48 53 52 77 33 166 48 204 100 260 36 38 62 80 85 135 83 197 92 211 104 163z m-7111 -95 c9 -10 25 -36 35 -58 11 -22 38 -69 60 -105 45 -74 63 -144 35 -138 -9 2 -16 11 -14 19 1 8 -6 24 -16 35 -80 88 -157 219 -146 248 8 21 27 20 46 -1z m230 -479 c11 -40 2 -76 -20 -72 -18 3 -29 65 -18 95 9 22 29 10 38 -23z m102 -134 c5 -5 6 -16 2 -25 -6 -16 -9 -16 -29 -2 -12 8 -24 22 -25 32 -3 14 1 16 20 10 12 -4 27 -11 32 -15z m210 -4011 c23 -41 58 -96 79 -121 20 -25 37 -56 37 -70 0 -13 16 -47 35 -74 19 -27 42 -72 50 -99 8 -28 32 -78 53 -110 50 -78 56 -94 36 -102 -33 -13 -107 85 -144 191 -11 32 -31 71 -44 87 -14 17 -31 49 -37 72 -6 23 -24 57 -41 75 -41 47 -113 195 -105 216 13 33 41 10 81 -65z m5767 -2756 c3 -41 -4 -74 -37 -193 -46 -163 -59 -190 -91 -190 -21 0 -24 4 -20 23 12 48 88 294 103 335 16 42 43 57 45 25z m-151 -510 c0 -31 -28 -123 -45 -149 -9 -13 -41 -37 -73 -52 -58 -28 -88 -61 -136 -153 -75 -141 -189 -221 -251 -175 -16 12 -17 16 -6 30 7 9 28 16 46 16 18 0 44 9 59 21 29 23 97 118 134 189 39 73 78 108 138 120 61 13 68 20 84 78 15 56 31 92 42 92 4 0 8 -8 8 -17z"/>
<path d="M4090 8273 c-163 -12 -408 -74 -545 -137 -121 -57 -486 -370 -530 -456 -9 -18 -18 -53 -19 -78 l-1 -45 55 -19 c120 -42 145 -48 202 -48 l58 0 0 40 c0 151 296 337 690 435 164 40 239 50 400 48 294 -2 551 -75 766 -219 90 -59 233 -130 284 -140 49 -10 146 32 171 75 17 28 18 36 7 47 -125 118 -324 268 -413 310 -287 137 -752 214 -1125 187z"/>
<path d="M5690 7431 c0 -5 18 -35 39 -67 89 -134 240 -478 346 -789 32 -93 60 -172 62 -174 11 -14 9 23 -8 189 -10 102 -18 208 -19 236 0 28 -3 54 -6 57 -14 13 -23 152 -12 170 5 8 8 6 8 -5 0 -10 5 -18 11 -18 5 0 8 -4 4 -10 -3 -5 2 -26 10 -47 9 -21 18 -54 20 -73 2 -19 10 -66 19 -105 48 -230 90 -662 107 -1120 12 -318 9 -511 -18 -1252 l-16 -462 21 -98 c39 -173 25 -381 -26 -423 -18 -14 -21 -38 -31 -290 -6 -151 -11 -333 -12 -405 0 -151 -7 -215 -43 -424 -15 -84 -25 -158 -23 -164 6 -18 74 51 124 126 72 107 96 123 137 92 11 -8 26 -15 35 -15 8 0 22 -7 32 -16 17 -15 17 -20 4 -50 -22 -53 -99 -155 -159 -213 -62 -57 -124 -90 -173 -91 -36 0 -29 16 -73 -170 -33 -139 -75 -263 -125 -367 -44 -90 -46 -93 -91 -106 -36 -10 -50 -21 -68 -53 -21 -37 -24 -39 -66 -36 -50 3 -90 33 -90 66 0 12 34 89 77 173 42 84 74 155 70 159 -10 10 -96 -11 -149 -36 -24 -11 -58 -24 -76 -29 -28 -8 -34 -6 -56 20 -13 15 -30 45 -36 64 -16 47 -6 58 93 106 77 37 81 38 180 35 145 -3 198 -33 217 -121 6 -27 9 -24 29 45 13 41 33 119 46 175 l22 100 -27 32 c-32 36 -55 121 -48 177 3 30 1 35 -11 30 -9 -4 -38 -14 -64 -23 -43 -14 -47 -18 -42 -41 3 -14 8 -56 11 -95 5 -62 3 -74 -18 -104 -32 -48 -71 -68 -155 -81 -148 -23 -298 20 -402 116 -52 48 -54 52 -47 87 4 21 20 52 35 70 l29 31 55 -51 c73 -66 163 -103 251 -103 36 0 71 3 80 6 20 8 20 34 2 78 l-14 33 -113 5 c-103 4 -121 7 -187 38 -83 38 -164 116 -200 194 -12 25 -24 46 -27 46 -2 0 -32 -46 -65 -102 -36 -61 -90 -179 -133 -287 -75 -191 -99 -228 -132 -201 -8 7 -15 23 -15 35 0 42 59 248 105 370 119 314 550 1125 727 1369 15 21 28 43 28 47 0 13 -197 109 -223 109 -33 0 -150 -41 -227 -80 -315 -159 -749 -601 -991 -1007 -37 -64 -71 -124 -74 -134 -11 -34 -65 -36 -65 -3 0 27 89 225 156 349 170 312 354 537 667 814 88 79 125 116 115 121 -35 19 -246 52 -358 57 -164 7 -301 -14 -419 -63 -112 -46 -124 -49 -141 -29 -11 13 -10 22 9 55 21 38 21 38 1 33 -14 -4 -20 0 -20 12 0 9 9 19 20 22 11 3 20 9 20 14 0 5 5 9 11 9 6 0 8 -10 5 -22 -6 -21 -5 -21 3 -3 5 11 12 29 16 40 l7 20 8 -20 c8 -18 9 -18 10 5 1 14 4 20 7 13 3 -10 7 -10 18 0 19 18 8 27 -34 27 -123 0 -262 -117 -349 -293 -94 -190 -221 -541 -237 -655 -5 -36 -5 -37 47 -62 71 -34 103 -89 102 -177 -1 -93 -45 -177 -149 -279 l-82 -82 -11 -343 c-13 -363 -18 -412 -44 -417 -18 -4 -38 44 -38 92 0 38 -99 558 -109 568 -3 4 -35 0 -71 -9 -99 -23 -222 -14 -294 21 -79 39 -111 88 -110 170 0 78 26 129 108 214 56 59 239 192 283 206 17 6 19 18 19 149 0 205 52 492 129 714 6 17 -22 6 -154 -66 -174 -93 -337 -235 -422 -367 -43 -66 -60 -75 -94 -50 -19 13 -18 16 18 90 20 42 37 78 37 81 0 3 -17 -3 -37 -14 -67 -33 -185 -72 -204 -66 -10 3 -20 14 -23 23 -17 60 -36 154 -38 192 l-3 45 -57 -75 c-69 -92 -116 -180 -154 -289 -23 -65 -34 -83 -52 -88 -13 -3 -27 -2 -32 3 -5 5 -3 61 5 129 7 66 16 151 20 189 7 78 67 313 94 369 10 20 17 37 15 37 -15 0 -139 -63 -167 -84 -19 -14 -40 -26 -47 -26 -25 0 -175 -167 -219 -244 -76 -134 -107 -313 -98 -570 9 -245 59 -450 199 -801 145 -364 485 -860 702 -1024 146 -110 201 -141 391 -223 207 -89 328 -123 488 -138 61 -6 207 -26 322 -45 219 -36 656 -81 930 -95 88 -5 192 -12 231 -16 92 -9 249 10 391 47 110 28 320 102 385 135 50 25 226 143 283 189 27 22 66 51 85 65 54 37 236 217 301 297 38 48 83 125 133 228 41 86 91 180 111 209 41 62 107 249 135 381 24 117 55 324 75 500 36 316 73 518 125 680 15 50 38 129 49 177 30 129 114 416 160 548 46 134 139 347 238 545 216 432 281 642 290 945 4 129 2 184 -11 254 -21 108 -60 234 -81 261 -15 19 -16 13 -10 -76 5 -78 3 -98 -9 -108 -31 -26 -49 -7 -92 91 -23 54 -68 137 -100 185 l-58 88 -8 -40 c-4 -22 -19 -105 -33 -185 -14 -80 -64 -314 -111 -520 -128 -559 -150 -662 -173 -815 -12 -77 -53 -282 -91 -455 -91 -416 -119 -563 -131 -690 -11 -105 -24 -204 -79 -570 -17 -107 -46 -319 -65 -470 -30 -233 -77 -521 -100 -612 -4 -16 1 -33 15 -51 28 -35 21 -64 -24 -111 -18 -20 -48 -65 -67 -101 -39 -77 -115 -175 -135 -175 -30 0 -24 31 25 116 27 49 53 101 56 115 7 27 6 27 -78 39 -153 21 -161 15 -171 -137 -3 -50 -9 -98 -12 -107 -7 -19 -32 -27 -84 -28 -66 -1 -73 11 -65 121 13 191 40 263 113 299 67 34 146 36 328 7 l41 -7 11 68 c54 310 134 891 163 1169 21 208 43 355 90 600 38 202 120 580 152 705 14 52 29 149 36 215 18 199 65 454 206 1120 117 553 139 895 70 1113 -14 44 -31 84 -38 90 -7 6 -36 14 -64 18 l-52 6 25 -60 c42 -105 65 -272 71 -527 6 -244 2 -275 -37 -275 -22 0 -23 1 -45 149 -33 224 -126 418 -259 538 -53 48 -146 118 -146 110 0 -3 18 -36 40 -73 22 -38 40 -74 40 -81 0 -7 4 -13 9 -13 12 0 40 -84 43 -129 2 -21 -2 -36 -10 -38 -12 -5 -64 43 -127 117 -29 34 -123 114 -157 135 -9 6 -72 53 -141 107 -131 101 -229 167 -388 261 -131 76 -201 106 -278 117 -83 12 -91 12 -91 1z"/>
<path d="M5097 7273 c-4 -6 -9 -132 -12 -280 -6 -265 -6 -270 23 -413 l28 -145 90 -48 c159 -87 336 -196 469 -289 121 -85 304 -223 350 -265 11 -10 46 -40 78 -67 l58 -49 -6 94 c-16 242 -88 514 -249 942 -63 169 -145 357 -156 357 -3 0 -5 -36 -3 -79 3 -78 -16 -184 -37 -205 -6 -6 -15 4 -25 30 -38 93 -115 242 -142 271 -15 17 -46 54 -68 82 -21 28 -41 49 -42 47 -4 -3 18 -104 39 -181 6 -22 14 -114 17 -205 4 -91 10 -171 14 -177 12 -18 -11 -53 -34 -53 -11 0 -23 10 -29 23 -85 207 -149 348 -184 408 -50 85 -169 219 -179 202z"/>
<path d="M2580 7151 c-87 -27 -168 -75 -256 -150 -159 -135 -356 -386 -430 -546 -39 -84 -64 -108 -95 -89 -22 13 3 288 50 532 10 50 14 92 10 92 -5 0 -32 -24 -61 -54 -269 -274 -351 -892 -208 -1581 46 -221 168 -596 276 -847 63 -147 231 -505 244 -521 4 -4 40 8 82 27 124 58 216 68 238 26 7 -13 -3 -29 -46 -74 -59 -63 -76 -89 -93 -151 -16 -53 -52 -247 -47 -252 2 -2 21 27 42 64 21 37 70 99 107 137 63 66 70 78 93 156 14 47 45 122 69 167 51 96 50 87 65 553 28 826 60 1232 126 1615 13 77 33 201 44 275 12 74 25 153 31 175 5 22 16 67 24 100 8 33 21 92 30 130 8 39 30 101 48 138 l34 68 -46 -7 c-25 -4 -73 -15 -106 -25 -33 -10 -65 -19 -72 -19 -22 0 -45 32 -39 56 6 22 3 24 -26 23 -18 0 -58 -8 -88 -18z"/>
<path d="M3250 6934 c-54 -30 -126 -99 -223 -212 -66 -78 -73 -84 -102 -79 l-32 5 -12 -71 c-7 -40 -23 -130 -37 -202 -13 -71 -35 -224 -48 -340 -33 -282 -35 -306 -26 -303 4 2 41 44 82 93 164 196 247 258 692 515 l61 36 7 59 c3 33 10 158 14 278 7 209 6 217 -12 217 -34 0 -138 -56 -199 -107 -101 -83 -111 -88 -140 -69 -32 21 -31 38 5 127 16 41 30 75 30 77 0 7 -20 -1 -60 -24z"/>
<path d="M1924 6705 c-38 -22 -42 -29 -48 -76 -4 -28 -6 -53 -4 -54 2 -2 27 32 56 76 28 43 49 79 45 79 -5 0 -27 -11 -49 -25z"/>
<path d="M1247 6253 c-66 -193 -86 -351 -68 -541 26 -264 94 -468 281 -842 178 -355 296 -670 381 -1012 6 -27 15 -48 19 -48 4 0 15 9 26 21 10 12 50 39 87 61 37 23 66 43 65 47 -2 3 -23 44 -47 91 -291 557 -484 1131 -546 1615 -19 146 -24 406 -12 570 6 72 5 107 -1 100 -6 -5 -28 -53 -51 -105 -41 -96 -58 -113 -88 -88 -13 11 -15 28 -9 110 3 54 2 98 -2 98 -5 0 -21 -35 -35 -77z"/>
<path d="M5289 4449 c-57 -13 -140 -53 -184 -88 -52 -42 -112 -128 -116 -166 -4 -28 1 -33 56 -62 33 -17 102 -46 154 -63 52 -17 158 -59 235 -94 135 -61 145 -64 222 -64 151 -2 284 -33 284 -68 0 -9 -14 -31 -32 -47 -17 -17 -27 -32 -21 -34 6 -2 64 -30 129 -63 66 -32 121 -56 124 -53 3 2 7 58 9 124 l3 119 -36 77 c-87 183 -228 323 -425 422 -121 62 -291 87 -402 60z"/>
<path d="M2875 3889 c-78 -12 -148 -34 -215 -71 -84 -46 -90 -54 -90 -115 0 -29 2 -53 4 -53 2 0 78 36 169 80 142 70 168 86 191 120 37 57 42 54 -59 39z"/>
<path d="M4653 3425 c-77 -85 -233 -282 -233 -293 0 -4 17 11 37 33 19 22 89 97 155 167 90 96 119 133 116 150 -3 19 -13 11 -75 -57z"/>
<path d="M5981 3409 c-121 -77 -214 -155 -322 -266 -93 -96 -199 -216 -199 -227 0 -3 33 -6 73 -6 145 0 270 -53 365 -154 88 -95 142 -215 142 -317 0 -33 2 -36 24 -32 17 4 27 14 30 32 14 68 26 259 31 501 3 146 8 320 11 387 6 115 5 122 -14 132 -33 18 -43 14 -141 -50z"/>
<path d="M5396 3000 c-33 -37 -42 -50 -32 -50 2 0 20 20 40 45 46 56 41 59 -8 5z"/>
<path d="M3345 2941 l-30 -7 3 -69 c4 -104 32 -339 42 -348 4 -5 17 -4 29 2 18 10 21 21 21 69 0 32 4 93 9 137 5 44 12 113 16 153 l6 72 -33 -1 c-18 -1 -46 -4 -63 -8z"/>
<path d="M3537 2843 c-10 -60 -20 -137 -23 -173 l-7 -65 36 33 c41 39 80 109 97 170 14 53 0 103 -35 126 -45 30 -50 23 -68 -91z"/>
<path d="M5334 2908 c-4 -7 -3 -8 4 -4 7 4 12 9 12 12 0 8 -9 4 -16 -8z"/>
<path d="M3174 2870 c-67 -44 -169 -131 -206 -175 -107 -128 -64 -235 99 -251 57 -6 197 16 215 34 4 4 2 55 -6 113 -8 57 -18 150 -22 207 -4 56 -10 105 -14 107 -4 2 -33 -13 -66 -35z"/>
<path d="M5406 2799 c-51 -12 -65 -25 -132 -124 l-56 -82 12 -44 c19 -70 60 -137 117 -189 58 -53 114 -77 209 -86 l64 -7 0 34 c1 28 7 38 35 56 50 32 98 22 120 -23 18 -39 16 -39 81 -19 73 21 99 54 98 120 0 101 -103 253 -214 318 -87 51 -230 70 -334 46z"/>
</g>
<g id="layer105" fill="#e2e2e2" stroke="none">
<path d="M0 11429 l0 -571 24 19 c38 30 265 219 346 288 41 35 110 88 153 117 42 29 111 77 153 107 41 29 77 51 79 49 2 -2 5 -33 6 -68 1 -67 14 -137 73 -400 19 -85 55 -254 81 -375 61 -281 79 -340 111 -361 51 -34 156 8 183 74 10 25 1 79 -69 413 -44 211 -91 432 -104 492 l-24 107 47 0 c25 0 107 7 181 16 74 8 225 19 335 23 227 8 255 16 275 76 14 43 8 99 -14 120 -9 9 -16 20 -16 23 0 4 -11 14 -24 22 -21 13 -57 14 -228 8 -189 -6 -236 -10 -313 -23 -75 -13 -230 -25 -244 -19 -11 4 3 12 39 23 78 25 479 209 515 236 17 12 53 34 81 48 28 14 54 33 58 42 9 25 7 47 -4 40 -6 -4 -9 4 -7 17 l2 23 -432 3 c-362 2 -433 0 -433 -12 0 -11 61 -339 75 -401 3 -17 -4 -24 -39 -37 l-42 -16 -37 192 c-20 105 -40 210 -43 234 l-7 42 -368 0 -369 0 0 -571z m1791 108 c29 -36 30 -86 2 -109 -13 -11 -169 -23 -373 -29 -8 -1 -55 -5 -105 -11 -49 -5 -148 -13 -220 -16 l-130 -7 3 -39 c2 -22 30 -161 63 -310 33 -149 62 -280 64 -291 2 -11 21 -105 42 -209 l37 -189 -32 -28 c-21 -19 -43 -29 -63 -29 -46 0 -38 -28 -194 685 -25 116 -48 218 -50 228 -2 10 -12 64 -21 121 -17 101 -17 103 2 142 30 59 69 74 189 74 55 0 159 7 230 16 109 13 250 23 490 32 34 2 44 -3 66 -31z"/>
<path d="M6686 11966 c-23 -49 -21 -54 32 -60 180 -22 608 -120 766 -175 64 -23 76 -21 76 13 0 12 14 71 30 129 17 59 30 112 30 117 0 6 -163 10 -459 10 l-459 0 -16 -34z"/>
<path d="M7735 11943 c-26 -94 -67 -216 -81 -244 -12 -25 -12 -25 84 -73 115 -57 198 -114 284 -196 35 -34 91 -79 125 -101 34 -22 67 -47 73 -55 10 -11 14 -11 26 1 15 14 37 11 63 -9 11 -9 9 -12 -10 -17 -23 -7 -23 -7 8 -20 18 -7 35 -19 38 -26 2 -8 -18 -60 -45 -116 -27 -56 -61 -136 -76 -177 -14 -41 -96 -217 -182 -390 -218 -443 -248 -509 -297 -650 -43 -124 -153 -419 -365 -980 -61 -162 -127 -340 -147 -395 -51 -142 -106 -265 -166 -374 -46 -83 -62 -102 -147 -173 -65 -55 -126 -95 -195 -129 -172 -83 -582 -189 -731 -189 -61 0 -175 28 -226 54 -45 23 -48 24 -48 6 0 -26 -76 -88 -125 -101 -22 -6 -57 -15 -77 -21 -50 -15 -124 -5 -159 21 -18 14 -37 20 -49 16 -28 -9 -167 -166 -185 -208 l-15 -37 75 -71 c87 -83 148 -170 210 -301 l44 -93 0 45 c1 70 -27 227 -56 318 -24 76 -25 84 -11 99 12 11 25 14 44 9 39 -10 149 -125 213 -224 30 -45 55 -81 57 -79 2 1 -2 45 -8 95 -9 71 -9 97 0 112 9 15 5 33 -28 105 -22 47 -40 92 -40 100 0 12 16 15 78 15 99 0 202 -22 258 -55 24 -14 48 -24 53 -21 4 3 39 -13 77 -35 38 -23 101 -57 139 -76 39 -20 81 -44 94 -54 13 -11 31 -19 39 -19 8 0 45 -28 82 -62 64 -60 166 -153 256 -231 29 -26 44 -33 52 -25 13 13 -14 58 -99 165 -50 64 -57 77 -48 94 13 26 20 23 129 -52 49 -33 95 -62 102 -63 15 -3 102 -79 166 -145 52 -54 105 -139 148 -238 35 -81 49 -102 40 -63 -2 14 -8 61 -11 105 -12 165 -59 341 -98 374 -10 7 -17 24 -17 38 0 24 1 24 83 23 45 -1 89 1 99 5 35 14 100 -38 137 -112 41 -81 54 -175 56 -380 l2 -192 43 -60 c24 -32 62 -94 84 -137 23 -43 42 -70 44 -61 5 24 -25 176 -48 241 -21 62 -18 86 10 86 13 0 25 -16 39 -55 12 -31 21 -58 21 -60 0 -3 31 -35 69 -72 164 -163 238 -461 200 -811 -26 -245 -93 -436 -304 -877 -215 -448 -275 -598 -386 -970 -33 -110 -86 -285 -119 -390 -58 -185 -61 -199 -100 -510 -22 -176 -49 -365 -60 -420 -10 -55 -24 -134 -30 -175 -22 -152 -87 -368 -150 -498 -102 -210 -236 -404 -345 -498 -31 -27 -89 -78 -129 -113 -39 -35 -107 -88 -152 -117 -97 -64 -288 -165 -364 -193 -140 -51 -356 -111 -469 -130 -167 -28 -235 -27 -621 8 -63 5 -191 15 -285 22 -93 6 -235 20 -315 30 -80 11 -192 24 -250 29 -58 6 -139 17 -180 25 -41 8 -115 19 -165 25 -297 34 -654 202 -886 417 -191 176 -318 328 -422 505 -146 249 -195 341 -295 563 -100 222 -129 327 -163 595 -37 298 -18 546 57 748 l35 92 -51 171 c-93 311 -189 544 -399 968 -143 290 -221 503 -259 706 -12 65 -16 145 -16 290 0 184 3 208 27 297 57 212 164 367 272 394 29 7 29 10 10 -89 -24 -125 -19 -130 35 -33 28 50 56 97 64 105 7 9 25 52 40 96 66 200 217 394 331 427 22 6 47 17 56 25 20 16 49 17 49 1 0 -7 -12 -67 -25 -133 -14 -66 -25 -132 -25 -146 l0 -27 37 19 c21 10 51 19 68 19 27 0 42 13 109 90 153 177 310 292 461 335 69 21 194 15 232 -10 21 -14 32 -14 104 0 106 20 142 19 162 -3 25 -27 21 -42 -23 -101 -26 -35 -48 -80 -64 -134 -27 -92 -40 -157 -31 -157 3 0 28 22 55 48 27 26 61 54 77 62 15 8 50 30 76 49 104 73 216 101 252 61 17 -19 17 -22 2 -62 -9 -23 -15 -43 -13 -45 1 -2 29 13 62 32 57 34 111 55 147 55 15 0 17 11 17 97 0 123 -15 156 -119 262 -89 91 -113 102 -145 72 -20 -19 -34 -22 -97 -20 -157 3 -283 41 -332 99 -25 30 -31 32 -70 27 -69 -10 -284 11 -402 39 -60 14 -187 43 -281 64 -171 39 -235 59 -264 84 -8 7 -49 23 -90 36 -121 36 -185 75 -304 190 -127 123 -189 210 -328 465 -115 209 -357 695 -451 905 -185 413 -330 664 -527 920 -45 58 -96 128 -115 155 -18 28 -49 66 -69 84 l-36 35 0 -5267 0 -5267 4245 0 4245 0 0 6000 0 6000 -370 0 -369 0 -16 -57z m55 -2543 c0 -84 -87 -268 -156 -329 -46 -40 -47 -42 -60 -129 -7 -49 -20 -108 -30 -131 -26 -66 -108 -121 -137 -92 -8 8 0 22 35 54 39 36 47 51 58 102 34 166 44 192 96 247 33 35 60 77 78 123 59 145 85 195 100 195 12 0 16 -10 16 -40z m-7083 -137 c16 -32 46 -85 65 -119 19 -33 38 -80 42 -103 6 -37 4 -42 -11 -39 -11 2 -17 12 -16 23 1 10 -5 28 -13 39 -8 11 -14 17 -14 12 0 -17 -71 81 -105 145 -37 70 -44 104 -22 112 23 8 44 -12 74 -70z m193 -402 c25 -48 1 -143 -28 -109 -15 18 -25 82 -17 107 8 26 31 27 45 2z m27 -158 c-4 -3 -7 0 -7 7 0 7 3 10 7 7 3 -4 3 -10 0 -14z m77 -3 c5 -5 6 -16 2 -25 -6 -16 -9 -16 -29 -2 -12 8 -24 22 -25 32 -3 14 1 16 20 10 12 -4 27 -11 32 -15z m168 -3937 c8 -10 32 -49 53 -87 21 -38 52 -84 68 -103 16 -18 33 -51 38 -74 5 -22 23 -57 39 -78 16 -20 36 -59 45 -86 8 -28 35 -83 60 -123 47 -78 56 -112 29 -112 -38 0 -123 115 -148 200 -9 29 -28 68 -42 87 -15 19 -33 55 -40 80 -8 25 -26 57 -40 72 -38 37 -116 198 -109 222 8 24 27 24 47 2z m5804 -2923 c-24 -114 -72 -259 -92 -281 -9 -10 -26 -19 -37 -19 -16 0 -18 5 -15 33 10 67 109 372 126 385 30 22 37 -28 18 -118z m-136 -401 c0 -11 -10 -54 -22 -96 -24 -82 -49 -110 -121 -133 -25 -8 -45 -23 -57 -44 -10 -17 -25 -38 -33 -46 -8 -8 -24 -33 -35 -56 -68 -134 -186 -215 -247 -170 -16 12 -17 16 -6 30 7 9 28 16 46 16 18 0 44 9 58 20 29 23 117 145 117 162 0 20 62 108 90 128 15 10 46 24 70 29 54 12 62 22 84 96 19 61 32 85 47 85 5 0 9 -9 9 -21z"/>
<path d="M3900 11660 c-106 -19 -179 -109 -230 -287 -13 -46 -27 -83 -30 -83 -4 0 -14 42 -23 93 -25 140 -36 168 -78 211 -39 38 -40 39 -100 33 -96 -8 -119 -37 -174 -220 -97 -324 -180 -770 -191 -1032 l-6 -140 26 -25 c35 -32 136 -41 184 -16 40 20 46 46 61 246 10 127 35 298 78 533 3 15 8 27 12 27 6 0 75 -240 95 -331 11 -51 47 -76 118 -84 113 -12 126 5 163 226 30 176 93 449 104 449 4 0 15 -53 25 -117 43 -290 143 -749 206 -947 35 -107 55 -131 123 -140 62 -8 97 10 130 67 l26 43 -35 120 c-79 274 -140 564 -199 946 -37 245 -53 311 -86 352 -47 59 -125 89 -199 76z m93 -54 c45 -19 84 -68 102 -129 8 -29 26 -131 40 -227 14 -96 34 -222 45 -280 11 -58 22 -120 25 -139 17 -109 91 -419 127 -531 36 -115 37 -126 18 -143 -10 -8 -22 -23 -28 -33 -13 -24 -90 -21 -108 4 -16 22 -97 314 -133 482 -44 200 -69 338 -106 588 -19 124 -37 227 -40 231 -30 29 -116 -266 -169 -579 -38 -223 -41 -228 -132 -214 -33 5 -48 12 -55 28 -14 30 -64 217 -107 393 -20 84 -40 149 -44 145 -9 -9 -62 -239 -88 -387 -22 -120 -45 -308 -55 -450 -9 -119 -10 -123 -52 -134 -46 -13 -91 -3 -108 23 -26 41 19 431 86 746 37 177 109 443 138 510 29 70 97 93 157 53 30 -19 36 -39 84 -282 22 -113 42 -207 45 -209 2 -2 7 9 11 24 29 128 50 204 82 298 32 96 42 116 87 162 62 63 113 78 178 50z"/>
<path d="M2370 11637 c-70 -17 -112 -39 -178 -94 -65 -56 -132 -149 -168 -233 -15 -36 -34 -70 -41 -76 -9 -7 -10 -13 -4 -15 7 -3 8 -15 1 -39 -20 -75 -23 -99 -27 -206 -9 -222 58 -461 167 -591 22 -26 56 -67 76 -90 43 -52 147 -105 207 -105 53 0 201 19 245 32 57 16 124 60 195 129 111 107 175 238 203 413 14 86 15 116 5 188 -42 302 -242 601 -450 675 -62 21 -166 27 -231 12z m254 -76 c38 -19 90 -56 126 -92 58 -57 160 -201 173 -244 3 -11 17 -50 31 -87 77 -204 69 -398 -25 -595 -77 -161 -218 -271 -374 -293 -44 -6 -99 -13 -122 -17 -79 -11 -210 70 -279 172 -111 165 -161 359 -152 593 4 103 10 142 32 207 55 162 144 284 256 349 72 42 84 45 187 42 68 -2 91 -7 147 -35z"/>
<path d="M2425 11431 c-83 -21 -142 -78 -198 -192 -82 -165 -89 -363 -20 -572 15 -43 32 -84 38 -91 7 -7 16 -22 20 -35 3 -12 34 -51 67 -87 50 -53 66 -64 92 -64 48 1 116 18 174 45 57 27 142 99 142 121 0 8 4 14 9 14 4 0 22 30 39 68 82 180 65 366 -53 567 -96 164 -214 249 -310 226z m100 -60 c86 -39 180 -170 237 -331 26 -71 34 -211 18 -281 -19 -83 -76 -184 -132 -234 -51 -46 -147 -85 -207 -85 -40 0 -113 77 -156 163 -57 117 -70 182 -69 347 0 132 2 151 26 211 45 115 100 187 163 215 41 18 73 17 120 -5z"/>
<path d="M5685 11645 c-5 -2 -22 -6 -37 -9 -38 -9 -71 -65 -86 -146 -18 -95 -31 -207 -32 -270 -1 -90 -6 -99 -48 -93 -21 3 -38 7 -40 8 -1 1 -21 92 -43 201 -40 201 -52 234 -90 255 -47 24 -135 -15 -165 -74 -21 -39 -17 -72 36 -372 74 -412 179 -852 237 -992 35 -84 73 -113 146 -113 45 0 54 4 87 39 60 62 74 138 105 549 8 107 16 196 17 197 2 1 24 12 49 23 35 15 54 32 74 65 24 43 25 48 12 74 -21 39 -59 73 -93 82 l-29 8 4 104 c2 57 10 145 18 194 24 139 27 201 11 214 -73 60 -94 69 -133 56z m45 -60 c7 -8 18 -15 25 -15 29 0 32 -26 14 -130 -20 -121 -43 -386 -34 -400 3 -6 20 -10 36 -10 33 0 89 -46 89 -73 0 -19 -53 -77 -72 -78 -33 -2 -58 -6 -62 -10 -2 -2 -9 -83 -15 -179 -17 -250 -39 -449 -56 -506 -19 -64 -52 -96 -100 -96 -20 0 -45 8 -55 17 -56 51 -162 451 -260 980 -22 121 -44 234 -49 250 -4 17 -9 60 -10 96 -2 63 0 68 29 93 39 32 75 34 94 4 8 -13 31 -108 51 -213 20 -104 38 -197 40 -205 4 -11 28 -20 75 -28 39 -7 76 -12 84 -12 9 0 16 39 25 156 13 177 35 306 57 340 23 34 73 44 94 19z"/>
<path d="M5436 10921 c-5 -8 80 -400 88 -409 3 -2 7 6 10 19 9 40 28 360 22 366 -10 10 -116 31 -120 24z"/>
<path d="M7001 11555 c-65 -59 -76 -112 -62 -288 6 -77 21 -209 31 -293 34 -255 51 -487 55 -738 5 -286 3 -281 110 -281 76 0 112 22 135 81 31 83 15 514 -36 954 -14 118 -27 274 -29 346 -4 102 -9 141 -25 176 -25 57 -37 67 -92 74 -42 6 -48 4 -87 -31z m104 -23 c33 -24 47 -75 50 -190 2 -64 15 -216 29 -337 33 -280 44 -416 52 -640 12 -307 -4 -365 -99 -365 -25 0 -49 6 -56 13 -7 9 -11 79 -10 208 1 216 -8 343 -51 729 -50 457 -50 505 5 564 23 25 59 34 80 18z"/>
<path d="M6136 11545 c-22 -7 -50 -26 -62 -42 -43 -52 -47 -89 -40 -379 7 -267 7 -271 -15 -308 -20 -34 -21 -41 -9 -79 8 -23 20 -49 27 -58 9 -10 13 -47 13 -111 l0 -96 -30 -7 c-54 -12 -100 -91 -100 -170 0 -42 23 -122 50 -175 77 -151 209 -232 381 -232 107 0 176 19 257 72 213 137 270 341 150 532 -59 94 -227 231 -372 303 l-81 40 -7 85 c-9 124 -9 449 1 490 12 54 -8 101 -55 127 -45 26 -55 27 -108 8z m79 -47 c14 -6 25 -16 25 -22 1 -6 3 -157 5 -335 3 -179 8 -328 13 -333 5 -5 31 -17 58 -27 41 -15 144 -79 257 -161 53 -38 141 -141 169 -197 83 -169 0 -346 -211 -451 -70 -34 -81 -37 -165 -37 -102 1 -112 3 -176 32 -97 44 -163 120 -201 231 -30 87 -20 180 21 202 23 13 36 -3 45 -55 10 -60 15 -75 26 -75 12 0 12 427 0 434 -19 12 -23 77 -6 102 14 22 15 57 9 312 -6 266 -6 291 11 326 11 24 30 44 49 52 39 16 39 17 71 2z"/>
<path d="M6247 10458 c-6 -185 -21 -255 -64 -286 l-27 -19 40 -26 c77 -52 189 -56 275 -11 42 21 107 82 125 115 17 34 18 82 2 112 -21 41 -90 115 -147 160 -64 51 -170 117 -187 117 -8 0 -13 -52 -17 -162z m189 -2 c81 -68 124 -125 124 -164 0 -43 -58 -107 -130 -141 -57 -28 -80 -29 -152 -10 -39 10 -45 18 -29 35 15 14 41 123 41 171 0 24 4 43 9 43 5 0 7 27 4 60 -4 41 -2 60 6 60 6 0 11 7 11 16 0 15 3 14 28 -2 15 -9 54 -40 88 -68z"/>
<path d="M6310 10360 c0 -7 3 -10 7 -7 3 4 3 10 0 14 -4 3 -7 0 -7 -7z"/>
<path d="M4284 7920 c-263 -25 -613 -139 -781 -252 -64 -43 -81 -65 -85 -109 -3 -23 8 -34 83 -85 47 -33 112 -82 143 -111 l57 -52 11 -128 c13 -155 15 -324 6 -458 l-7 -100 22 29 c12 16 49 66 82 110 195 265 523 466 759 466 160 0 323 -83 404 -205 l30 -46 6 28 c2 15 8 64 11 108 9 112 33 261 51 316 17 52 108 169 154 195 16 10 30 21 30 24 0 4 -19 17 -42 30 -24 12 -68 38 -99 57 -67 41 -267 123 -386 159 -72 21 -112 27 -223 29 -74 2 -176 0 -226 -5z"/>
<path d="M5743 7423 c4 -3 10 -3 14 0 3 4 0 7 -7 7 -7 0 -10 -3 -7 -7z"/>
<path d="M5803 7423 c4 -3 10 -3 14 0 3 4 0 7 -7 7 -7 0 -10 -3 -7 -7z"/>
<path d="M5870 7406 c0 -3 9 -10 20 -16 11 -6 20 -8 20 -6 0 3 -9 10 -20 16 -11 6 -20 8 -20 6z"/>
<path d="M5940 7370 c0 -5 5 -10 11 -10 5 0 7 5 4 10 -3 6 -8 10 -11 10 -2 0 -4 -4 -4 -10z"/>
<path d="M6750 7020 c0 -6 7 -13 15 -16 8 -4 12 -10 9 -15 -3 -5 0 -9 6 -9 6 0 8 -6 4 -12 -5 -10 -4 -10 5 -2 6 6 9 17 6 25 -7 19 -45 43 -45 29z"/>
<path d="M1850 6970 c0 -7 3 -10 7 -7 3 4 3 10 0 14 -4 3 -7 0 -7 -7z"/>
<path d="M6800 6940 c0 -7 3 -10 7 -7 3 4 3 10 0 14 -4 3 -7 0 -7 -7z"/>
<path d="M6875 6930 c3 -5 8 -10 11 -10 3 0 2 5 -1 10 -3 6 -8 10 -11 10 -3 0 -2 -4 1 -10z"/>
<path d="M6743 6895 c0 -8 6 -16 14 -19 15 -6 15 -4 7 18 -8 20 -21 21 -21 1z"/>
<path d="M6655 6890 c3 -5 8 -10 11 -10 3 0 2 5 -1 10 -3 6 -8 10 -11 10 -3 0 -2 -4 1 -10z"/>
<path d="M7005 6780 c3 -5 8 -10 11 -10 3 0 2 5 -1 10 -3 6 -8 10 -11 10 -3 0 -2 -4 1 -10z"/>
<path d="M4229 6445 c-240 -39 -410 -90 -629 -189 -265 -120 -545 -353 -747 -621 -117 -155 -110 -137 -118 -332 l-7 -173 28 -11 c16 -6 58 -12 94 -13 l65 -1 3 43 c2 24 -2 67 -8 95 -10 48 -9 52 14 74 30 27 67 30 88 6 37 -43 55 -182 30 -230 -39 -73 -162 -96 -299 -57 -22 6 -23 4 -23 -64 0 -62 2 -71 20 -77 14 -5 32 2 56 20 56 43 121 68 160 61 49 -10 77 -50 71 -103 -4 -41 -4 -41 32 -48 28 -5 38 -3 46 11 26 45 74 101 101 119 l29 19 -50 26 c-84 42 -117 129 -75 197 19 32 52 48 87 41 14 -3 17 -11 15 -41 -2 -23 3 -48 13 -63 14 -22 21 -24 60 -19 36 6 47 3 64 -14 29 -29 26 -48 -13 -87 l-34 -34 31 -14 c51 -21 70 -49 63 -89 -5 -28 -12 -36 -44 -45 -20 -6 -52 -10 -70 -10 -31 1 -51 -7 -41 -17 9 -8 551 -54 949 -81 478 -31 1106 -43 1338 -25 208 16 437 55 552 94 l95 32 6 60 c4 33 7 162 8 287 l1 227 -31 86 c-30 83 -34 89 -142 194 -272 266 -402 353 -892 599 -239 120 -381 167 -542 181 -159 14 -182 13 -354 -14z m-109 -625 c194 -11 458 -42 559 -66 79 -18 263 -82 346 -120 140 -64 258 -161 291 -239 33 -80 5 -158 -69 -194 -110 -53 -449 -48 -667 10 -107 29 -213 82 -249 126 l-30 37 -118 -22 c-349 -63 -520 -46 -607 62 -28 34 -31 45 -31 104 0 171 132 284 355 305 19 2 37 4 40 5 3 1 84 -3 180 -8z"/>
<path d="M3870 5719 c-79 -13 -156 -54 -185 -97 -57 -86 -54 -140 8 -177 49 -30 232 -33 422 -6 221 31 225 31 271 -26 70 -86 246 -144 491 -163 216 -17 356 4 369 56 10 40 -4 71 -55 121 -131 129 -345 210 -678 258 -95 14 -192 29 -215 34 -55 12 -356 11 -428 0z"/>
<path d="M3853 4683 c4 -3 10 -3 14 0 3 4 0 7 -7 7 -7 0 -10 -3 -7 -7z"/>
<path d="M3184 4461 c-227 -62 -450 -242 -552 -447 -38 -75 -58 -132 -49 -140 3 -3 40 12 81 34 63 34 95 44 180 57 146 21 201 20 227 -6 14 -14 19 -28 15 -45 -6 -23 -3 -22 91 22 169 80 270 123 365 155 104 35 178 70 197 93 19 22 7 59 -40 122 -44 60 -118 114 -200 146 -78 30 -222 34 -315 9z"/>
<path d="M5289 4449 c-57 -13 -140 -53 -184 -88 -52 -42 -112 -128 -116 -166 -4 -28 1 -33 56 -62 33 -17 102 -46 154 -63 52 -17 158 -59 235 -94 135 -61 145 -64 222 -64 151 -2 284 -33 284 -68 0 -9 -14 -31 -32 -47 -17 -17 -27 -32 -21 -34 6 -2 64 -30 129 -63 66 -32 121 -56 124 -53 3 2 7 58 9 124 l3 119 -36 77 c-87 183 -228 323 -425 422 -121 62 -291 87 -402 60z m678 -601 c-3 -8 -6 -5 -6 6 -1 11 2 17 5 13 3 -3 4 -12 1 -19z"/>
</g>


</svg>